<svg width="66" height="43" viewBox="0 0 66 43" fill="none" xmlns="http://www.w3.org/2000/svg">
<g opacity="0.5" clip-path="url(#clip0_7_519)">
<path d="M21.4606 27.7924L16.9662 25.2188" stroke="#AECBE3" stroke-width="0.5" stroke-miterlimit="10"/>
<path d="M15.7653 24.5316L11.6219 22.1592" stroke="#AECBE3" stroke-width="0.5" stroke-miterlimit="10"/>
<path d="M34.2766 35.1288L33.701 34.7998" stroke="#AECBE3" stroke-width="0.5" stroke-miterlimit="10"/>
<path d="M26.8052 30.8519L22.6617 28.4795" stroke="#AECBE3" stroke-width="0.5" stroke-miterlimit="10"/>
<path d="M32.5016 34.1124L28.006 31.5388" stroke="#AECBE3" stroke-width="0.5" stroke-miterlimit="10"/>
<path d="M4.72623 18.2115L4.1405 17.8762" stroke="#AECBE3" stroke-width="0.5" stroke-miterlimit="10"/>
<path d="M10.4211 21.4723L5.92548 18.8987" stroke="#AECBE3" stroke-width="0.5" stroke-miterlimit="10"/>
<path d="M18.111 24.5369L11.6132 20.8169" stroke="#AECBE3" stroke-width="0.5" stroke-miterlimit="10"/>
<path d="M21.4534 26.45L19.3121 25.2239" stroke="#AECBE3" stroke-width="0.5" stroke-miterlimit="10"/>
<path d="M35.4458 34.4604L33.6937 33.457" stroke="#AECBE3" stroke-width="0.5" stroke-miterlimit="10"/>
<path d="M32.4922 32.77L30.351 31.5439" stroke="#AECBE3" stroke-width="0.5" stroke-miterlimit="10"/>
<path d="M29.1505 30.8569L22.6539 27.137" stroke="#AECBE3" stroke-width="0.5" stroke-miterlimit="10"/>
<path d="M10.4136 20.1296L8.27228 18.9036" stroke="#AECBE3" stroke-width="0.5" stroke-miterlimit="10"/>
<path d="M7.07136 18.2167L5.30908 17.2083" stroke="#AECBE3" stroke-width="0.5" stroke-miterlimit="10"/>
<path d="M20.4542 24.5406L11.6058 19.4756" stroke="#AECBE3" stroke-width="0.5" stroke-miterlimit="10"/>
<path d="M36.6127 33.791L33.6841 32.1145" stroke="#AECBE3" stroke-width="0.5" stroke-miterlimit="10"/>
<path d="M31.4945 30.8607L22.6461 25.7957" stroke="#AECBE3" stroke-width="0.5" stroke-miterlimit="10"/>
<path d="M9.41557 18.2217L6.47675 16.5388" stroke="#AECBE3" stroke-width="0.5" stroke-miterlimit="10"/>
<path d="M21.4368 23.7661L12.9585 18.9124" stroke="#AECBE3" stroke-width="0.5" stroke-miterlimit="10"/>
<path d="M22.7995 24.5455L22.6375 24.4531" stroke="#AECBE3" stroke-width="0.5" stroke-miterlimit="10"/>
<path d="M37.7809 33.123L35.0386 31.5527" stroke="#AECBE3" stroke-width="0.5" stroke-miterlimit="10"/>
<path d="M33.8376 30.8658L33.6768 30.7734" stroke="#AECBE3" stroke-width="0.5" stroke-miterlimit="10"/>
<path d="M32.4758 30.0864L23.9988 25.2327" stroke="#AECBE3" stroke-width="0.5" stroke-miterlimit="10"/>
<path d="M11.7589 18.2254L11.5981 18.1331" stroke="#AECBE3" stroke-width="0.5" stroke-miterlimit="10"/>
<path d="M10.397 17.4459L7.64447 15.8706" stroke="#AECBE3" stroke-width="0.5" stroke-miterlimit="10"/>
<path d="M14.1045 18.2307L11.5894 16.7908" stroke="#AECBE3" stroke-width="0.5" stroke-miterlimit="10"/>
<path d="M25.1448 24.5508L22.6296 23.1108" stroke="#AECBE3" stroke-width="0.5" stroke-miterlimit="10"/>
<path d="M36.184 30.8706L33.6676 29.4307" stroke="#AECBE3" stroke-width="0.5" stroke-miterlimit="10"/>
<path d="M38.9493 32.4537L37.3835 31.5579" stroke="#AECBE3" stroke-width="0.5" stroke-miterlimit="10"/>
<path d="M32.4682 28.7439L26.3442 25.2378" stroke="#AECBE3" stroke-width="0.5" stroke-miterlimit="10"/>
<path d="M21.4276 22.4236L15.3049 18.9175" stroke="#AECBE3" stroke-width="0.5" stroke-miterlimit="10"/>
<path d="M10.3894 16.1036L8.81348 15.2014" stroke="#AECBE3" stroke-width="0.5" stroke-miterlimit="10"/>
<path d="M16.4481 18.2354L11.5811 15.4492" stroke="#AECBE3" stroke-width="0.5" stroke-miterlimit="10"/>
<path d="M27.488 24.5557L22.621 21.7695" stroke="#AECBE3" stroke-width="0.5" stroke-miterlimit="10"/>
<path d="M38.5273 30.8746L33.6603 28.0884" stroke="#AECBE3" stroke-width="0.5" stroke-miterlimit="10"/>
<path d="M40.1174 31.7857L39.7281 31.5618" stroke="#AECBE3" stroke-width="0.5" stroke-miterlimit="10"/>
<path d="M32.4592 27.4013L28.6884 25.2427" stroke="#AECBE3" stroke-width="0.5" stroke-miterlimit="10"/>
<path d="M21.4202 21.0812L17.6494 18.9226" stroke="#AECBE3" stroke-width="0.5" stroke-miterlimit="10"/>
<path d="M10.3806 14.7622L9.9812 14.5332" stroke="#AECBE3" stroke-width="0.5" stroke-miterlimit="10"/>
<path d="M40.8722 30.8796L33.6521 26.7458" stroke="#AECBE3" stroke-width="0.5" stroke-miterlimit="10"/>
<path d="M32.4506 26.0589L31.0342 25.2478" stroke="#AECBE3" stroke-width="0.5" stroke-miterlimit="10"/>
<path d="M18.7938 18.2407L11.5724 14.1069" stroke="#AECBE3" stroke-width="0.5" stroke-miterlimit="10"/>
<path d="M21.4126 19.7388L19.9949 18.9277" stroke="#AECBE3" stroke-width="0.5" stroke-miterlimit="10"/>
<path d="M29.8328 24.5595L22.6127 20.427" stroke="#AECBE3" stroke-width="0.5" stroke-miterlimit="10"/>
<path d="M42.4539 30.4483L33.6438 25.4048" stroke="#AECBE3" stroke-width="0.5" stroke-miterlimit="10"/>
<path d="M21.1365 18.2446L12.3175 13.196" stroke="#AECBE3" stroke-width="0.5" stroke-miterlimit="10"/>
<path d="M32.1764 24.5645L22.6045 19.0845" stroke="#AECBE3" stroke-width="0.5" stroke-miterlimit="10"/>
<path d="M32.4352 23.3739L24.683 18.9365" stroke="#AECBE3" stroke-width="0.5" stroke-miterlimit="10"/>
<path d="M23.4836 18.2493L22.5967 17.7419" stroke="#AECBE3" stroke-width="0.5" stroke-miterlimit="10"/>
<path d="M21.3968 17.055L13.9521 12.7935" stroke="#AECBE3" stroke-width="0.5" stroke-miterlimit="10"/>
<path d="M34.5216 24.5684L33.636 24.061" stroke="#AECBE3" stroke-width="0.5" stroke-miterlimit="10"/>
<path d="M43.1662 29.5171L35.7228 25.2556" stroke="#AECBE3" stroke-width="0.5" stroke-miterlimit="10"/>
<path d="M44.7906 29.1108L44.358 28.8628" stroke="#AECBE3" stroke-width="0.5" stroke-miterlimit="10"/>
<path d="M36.8655 24.5736L33.6268 22.72" stroke="#AECBE3" stroke-width="0.5" stroke-miterlimit="10"/>
<path d="M25.8268 18.2545L22.5894 16.4009" stroke="#AECBE3" stroke-width="0.5" stroke-miterlimit="10"/>
<path d="M15.0957 12.1117L14.6542 11.8586" stroke="#AECBE3" stroke-width="0.5" stroke-miterlimit="10"/>
<path d="M21.3883 15.7138L16.2968 12.7986" stroke="#AECBE3" stroke-width="0.5" stroke-miterlimit="10"/>
<path d="M32.4279 22.0328L27.0275 18.9417" stroke="#AECBE3" stroke-width="0.5" stroke-miterlimit="10"/>
<path d="M43.1583 28.1758L38.0654 25.2605" stroke="#AECBE3" stroke-width="0.5" stroke-miterlimit="10"/>
<path d="M45.959 28.4416L44.3499 27.5205" stroke="#AECBE3" stroke-width="0.5" stroke-miterlimit="10"/>
<path d="M39.2109 24.5787L33.6191 21.3774" stroke="#AECBE3" stroke-width="0.5" stroke-miterlimit="10"/>
<path d="M28.172 18.2583L22.5802 15.0571" stroke="#AECBE3" stroke-width="0.5" stroke-miterlimit="10"/>
<path d="M17.4413 12.1152L15.8219 11.189" stroke="#AECBE3" stroke-width="0.5" stroke-miterlimit="10"/>
<path d="M21.3802 14.37L18.6417 12.8022" stroke="#AECBE3" stroke-width="0.5" stroke-miterlimit="10"/>
<path d="M32.419 20.6901L29.3743 18.9465" stroke="#AECBE3" stroke-width="0.5" stroke-miterlimit="10"/>
<path d="M43.1502 26.8333L40.4117 25.2656" stroke="#AECBE3" stroke-width="0.5" stroke-miterlimit="10"/>
<path d="M46.6825 27.5191L44.3434 26.1792" stroke="#AECBE3" stroke-width="0.5" stroke-miterlimit="10"/>
<path d="M43.1415 25.4919L42.7549 25.2705" stroke="#AECBE3" stroke-width="0.5" stroke-miterlimit="10"/>
<path d="M30.5155 18.2636L22.5719 13.7161" stroke="#AECBE3" stroke-width="0.5" stroke-miterlimit="10"/>
<path d="M21.3715 13.0288L20.9849 12.8074" stroke="#AECBE3" stroke-width="0.5" stroke-miterlimit="10"/>
<path d="M19.7853 12.1204L17.436 10.7754" stroke="#AECBE3" stroke-width="0.5" stroke-miterlimit="10"/>
<path d="M32.4106 19.349L31.7164 18.9517" stroke="#AECBE3" stroke-width="0.5" stroke-miterlimit="10"/>
<path d="M41.5555 24.5836L33.6118 20.0361" stroke="#AECBE3" stroke-width="0.5" stroke-miterlimit="10"/>
<path d="M47.8171 26.8307L45.099 25.2756" stroke="#AECBE3" stroke-width="0.5" stroke-miterlimit="10"/>
<path d="M32.4023 18.0063L23.3293 12.8123" stroke="#AECBE3" stroke-width="0.5" stroke-miterlimit="10"/>
<path d="M21.3636 11.6876L18.6366 10.1262" stroke="#AECBE3" stroke-width="0.5" stroke-miterlimit="10"/>
<path d="M43.134 24.1496L34.061 18.9556" stroke="#AECBE3" stroke-width="0.5" stroke-miterlimit="10"/>
<path d="M49.4633 26.436L47.4458 25.2808" stroke="#AECBE3" stroke-width="0.5" stroke-miterlimit="10"/>
<path d="M46.2435 24.5924L44.3256 23.4941" stroke="#AECBE3" stroke-width="0.5" stroke-miterlimit="10"/>
<path d="M32.3929 16.6641L25.6743 12.8176" stroke="#AECBE3" stroke-width="0.5" stroke-miterlimit="10"/>
<path d="M24.4739 12.1305L22.5559 11.0322" stroke="#AECBE3" stroke-width="0.5" stroke-miterlimit="10"/>
<path d="M21.3561 10.3451L19.3258 9.18359" stroke="#AECBE3" stroke-width="0.5" stroke-miterlimit="10"/>
<path d="M35.2058 18.2734L33.5967 17.3523" stroke="#AECBE3" stroke-width="0.5" stroke-miterlimit="10"/>
<path d="M43.125 22.8072L36.4064 18.9607" stroke="#AECBE3" stroke-width="0.5" stroke-miterlimit="10"/>
<path d="M48.5875 24.5974L44.3164 22.1528" stroke="#AECBE3" stroke-width="0.5" stroke-miterlimit="10"/>
<path d="M50.6307 25.7665L49.7885 25.2844" stroke="#AECBE3" stroke-width="0.5" stroke-miterlimit="10"/>
<path d="M37.5485 18.2774L33.5875 16.01" stroke="#AECBE3" stroke-width="0.5" stroke-miterlimit="10"/>
<path d="M21.3468 9.00257L20.4944 8.51416" stroke="#AECBE3" stroke-width="0.5" stroke-miterlimit="10"/>
<path d="M32.3868 15.3227L28.0188 12.8225" stroke="#AECBE3" stroke-width="0.5" stroke-miterlimit="10"/>
<path d="M26.8175 12.134L22.5477 9.68945" stroke="#AECBE3" stroke-width="0.5" stroke-miterlimit="10"/>
<path d="M43.1176 21.4661L38.7495 18.9658" stroke="#AECBE3" stroke-width="0.5" stroke-miterlimit="10"/>
<path d="M50.9332 24.6012L44.3091 20.8091" stroke="#AECBE3" stroke-width="0.5" stroke-miterlimit="10"/>
<path d="M43.11 20.1222L41.0963 18.9695" stroke="#AECBE3" stroke-width="0.5" stroke-miterlimit="10"/>
<path d="M29.1631 12.1393L22.5389 8.34717" stroke="#AECBE3" stroke-width="0.5" stroke-miterlimit="10"/>
<path d="M32.3776 13.9791L30.3652 12.8264" stroke="#AECBE3" stroke-width="0.5" stroke-miterlimit="10"/>
<path d="M39.895 18.2825L33.5784 14.6663" stroke="#AECBE3" stroke-width="0.5" stroke-miterlimit="10"/>
<path d="M52.9672 24.4293L44.3013 19.468" stroke="#AECBE3" stroke-width="0.5" stroke-miterlimit="10"/>
<path d="M31.5071 12.1446L22.8297 7.177" stroke="#AECBE3" stroke-width="0.5" stroke-miterlimit="10"/>
<path d="M42.2394 18.2875L33.5697 13.325" stroke="#AECBE3" stroke-width="0.5" stroke-miterlimit="10"/>
<path d="M53.8238 23.5814L45.7844 18.9795" stroke="#AECBE3" stroke-width="0.5" stroke-miterlimit="10"/>
<path d="M44.5836 18.2912L44.2939 18.1255" stroke="#AECBE3" stroke-width="0.5" stroke-miterlimit="10"/>
<path d="M32.361 11.294L24.3217 6.69214" stroke="#AECBE3" stroke-width="0.5" stroke-miterlimit="10"/>
<path d="M33.8516 12.1482L33.5619 11.9824" stroke="#AECBE3" stroke-width="0.5" stroke-miterlimit="10"/>
<path d="M43.0927 17.4386L35.0533 12.8367" stroke="#AECBE3" stroke-width="0.5" stroke-miterlimit="10"/>
<path d="M46.926 18.2962L44.2858 16.7842" stroke="#AECBE3" stroke-width="0.5" stroke-miterlimit="10"/>
<path d="M53.8143 22.2402L48.1281 18.9846" stroke="#AECBE3" stroke-width="0.5" stroke-miterlimit="10"/>
<path d="M55.3036 23.092L55.0165 22.9275" stroke="#AECBE3" stroke-width="0.5" stroke-miterlimit="10"/>
<path d="M32.3519 9.95289L26.6656 6.69727" stroke="#AECBE3" stroke-width="0.5" stroke-miterlimit="10"/>
<path d="M25.4651 6.01017L25.1665 5.83936" stroke="#AECBE3" stroke-width="0.5" stroke-miterlimit="10"/>
<path d="M43.0846 16.0974L37.3983 12.8418" stroke="#AECBE3" stroke-width="0.5" stroke-miterlimit="10"/>
<path d="M36.1943 12.1531L33.5541 10.6411" stroke="#AECBE3" stroke-width="0.5" stroke-miterlimit="10"/>
<path d="M49.2733 18.3012L44.2775 15.4417" stroke="#AECBE3" stroke-width="0.5" stroke-miterlimit="10"/>
<path d="M53.8066 20.8966L50.4735 18.9885" stroke="#AECBE3" stroke-width="0.5" stroke-miterlimit="10"/>
<path d="M56.4728 22.4223L55.0078 21.5847" stroke="#AECBE3" stroke-width="0.5" stroke-miterlimit="10"/>
<path d="M32.3447 8.61047L29.0116 6.70239" stroke="#AECBE3" stroke-width="0.5" stroke-miterlimit="10"/>
<path d="M27.8102 6.01539L26.3351 5.17017" stroke="#AECBE3" stroke-width="0.5" stroke-miterlimit="10"/>
<path d="M43.0764 14.7533L39.7433 12.8452" stroke="#AECBE3" stroke-width="0.5" stroke-miterlimit="10"/>
<path d="M38.5414 12.1569L33.5468 9.29858" stroke="#AECBE3" stroke-width="0.5" stroke-miterlimit="10"/>
<path d="M51.6157 18.3052L44.2693 14.0994" stroke="#AECBE3" stroke-width="0.5" stroke-miterlimit="10"/>
<path d="M53.7998 19.5552L52.8185 18.9934" stroke="#AECBE3" stroke-width="0.5" stroke-miterlimit="10"/>
<path d="M57.6407 21.7542L55.0005 20.2422" stroke="#AECBE3" stroke-width="0.5" stroke-miterlimit="10"/>
<path d="M43.0672 13.4121L42.0859 12.8503" stroke="#AECBE3" stroke-width="0.5" stroke-miterlimit="10"/>
<path d="M30.1532 6.01905L27.5028 4.50195" stroke="#AECBE3" stroke-width="0.5" stroke-miterlimit="10"/>
<path d="M32.3356 7.26809L31.3542 6.7063" stroke="#AECBE3" stroke-width="0.5" stroke-miterlimit="10"/>
<path d="M40.8846 12.1622L33.5394 7.9563" stroke="#AECBE3" stroke-width="0.5" stroke-miterlimit="10"/>
<path d="M53.7922 18.2141L44.4296 12.8542" stroke="#AECBE3" stroke-width="0.5" stroke-miterlimit="10"/>
<path d="M58.8076 21.0863L55.1593 18.9973" stroke="#AECBE3" stroke-width="0.5" stroke-miterlimit="10"/>
<path d="M32.3289 5.92806L28.6704 3.83398" stroke="#AECBE3" stroke-width="0.5" stroke-miterlimit="10"/>
<path d="M43.0597 12.071L33.6984 6.71118" stroke="#AECBE3" stroke-width="0.5" stroke-miterlimit="10"/>
<path d="M53.7841 16.8716L46.7745 12.8594" stroke="#AECBE3" stroke-width="0.5" stroke-miterlimit="10"/>
<path d="M56.3051 18.3152L54.983 17.5586" stroke="#AECBE3" stroke-width="0.5" stroke-miterlimit="10"/>
<path d="M59.977 20.4168L57.5052 19.0022" stroke="#AECBE3" stroke-width="0.5" stroke-miterlimit="10"/>
<path d="M45.5752 12.1724L44.2532 11.4158" stroke="#AECBE3" stroke-width="0.5" stroke-miterlimit="10"/>
<path d="M32.3215 4.58422L29.8395 3.16455" stroke="#AECBE3" stroke-width="0.5" stroke-miterlimit="10"/>
<path d="M34.8436 6.02789L33.5216 5.27124" stroke="#AECBE3" stroke-width="0.5" stroke-miterlimit="10"/>
<path d="M43.052 10.7273L36.0437 6.71631" stroke="#AECBE3" stroke-width="0.5" stroke-miterlimit="10"/>
<path d="M53.775 15.5305L49.1185 12.8645" stroke="#AECBE3" stroke-width="0.5" stroke-miterlimit="10"/>
<path d="M47.9176 12.1771L44.245 10.0742" stroke="#AECBE3" stroke-width="0.5" stroke-miterlimit="10"/>
<path d="M61.1445 19.7488L59.8506 19.0073" stroke="#AECBE3" stroke-width="0.5" stroke-miterlimit="10"/>
<path d="M58.6488 18.3205L54.9762 16.2175" stroke="#AECBE3" stroke-width="0.5" stroke-miterlimit="10"/>
<path d="M32.3126 3.24287L31.0072 2.49634" stroke="#AECBE3" stroke-width="0.5" stroke-miterlimit="10"/>
<path d="M43.0447 9.38718L38.3883 6.72119" stroke="#AECBE3" stroke-width="0.5" stroke-miterlimit="10"/>
<path d="M37.1859 6.03286L33.5133 3.92993" stroke="#AECBE3" stroke-width="0.5" stroke-miterlimit="10"/>
<path d="M53.7673 14.1866L51.464 12.8682" stroke="#AECBE3" stroke-width="0.5" stroke-miterlimit="10"/>
<path d="M50.2633 12.1809L44.2363 8.73047" stroke="#AECBE3" stroke-width="0.5" stroke-miterlimit="10"/>
<path d="M62.3139 19.0795L62.1965 19.0125" stroke="#AECBE3" stroke-width="0.5" stroke-miterlimit="10"/>
<path d="M60.9953 18.3243L54.967 14.8738" stroke="#AECBE3" stroke-width="0.5" stroke-miterlimit="10"/>
<path d="M32.3052 1.90054L32.1763 1.82715" stroke="#AECBE3" stroke-width="0.5" stroke-miterlimit="10"/>
<path d="M43.0366 8.04354L40.7333 6.7251" stroke="#AECBE3" stroke-width="0.5" stroke-miterlimit="10"/>
<path d="M39.5316 6.03812L33.5046 2.58765" stroke="#AECBE3" stroke-width="0.5" stroke-miterlimit="10"/>
<path d="M23.4841 18.2493L22.5998 18.248L22.5679 12.811L23.3297 12.8123L25.6751 12.8174L28.0193 12.8224L32.372 12.8313L32.3874 15.3227L32.3937 16.6639L32.4027 18.0064L32.4039 18.267L30.5166 18.2632L28.1724 18.2582L23.4841 18.2493Z" stroke="#AECBE3" stroke-width="0.5" stroke-miterlimit="10"/>
<path d="M32.4355 23.3738L32.4431 24.5645L29.8335 24.5594L27.4881 24.5556L22.7997 24.5455H22.6389L22.6377 24.4531L22.63 23.1106L22.6211 21.7694L22.6045 18.9326L24.6832 18.9364L27.0274 18.9415L29.3741 18.9465L31.717 18.9516L32.4087 18.9529L32.4112 19.3489L32.4189 20.6901L32.4278 22.0326L32.4355 23.3738Z" stroke="#AECBE3" stroke-width="0.5" stroke-miterlimit="10"/>
<path d="M33.5699 13.3247L33.5674 12.8325L43.0653 12.8515L43.0678 13.412L43.0768 14.7532L43.0844 16.097L43.0934 17.4382L43.0985 18.2885L39.8955 18.2822L37.5488 18.2771L35.2059 18.2733L33.6018 18.2695L33.5967 17.3522L33.5878 16.0097L33.5789 14.6659L33.5699 13.3247Z" stroke="#AECBE3" stroke-width="0.5" stroke-miterlimit="10"/>
<path d="M43.1024 18.9743L43.1101 20.1219L43.1177 21.4657L43.1254 22.8069L43.1343 24.1494L43.1368 24.5859L33.6389 24.5669L33.6364 24.0621L33.6198 21.3771L33.6121 20.0359L33.6045 18.9553H34.0613L36.4068 18.9604L38.7497 18.9654L41.0964 18.9692L43.1024 18.9743Z" stroke="#AECBE3" stroke-width="0.5" stroke-miterlimit="10"/>
<path d="M32.8914 0.0732422L0.631958 18.5403L33.1186 37.1377L65.378 18.6706L32.8914 0.0732422ZM62.4303 19.0123H62.1967L59.8513 19.0072L57.5071 19.0022L55.1617 18.9971H54.9945L55.0022 20.2421L55.0098 21.5834L55.0175 22.9259L55.02 23.2536L53.8269 23.9368L53.8243 23.58L53.8167 22.2388L53.809 20.8963L53.8014 19.5551L53.7975 18.9958L52.8201 18.9933L50.4772 18.9882L48.1317 18.9832L45.7888 18.9781L44.3022 18.9756L44.3303 23.494L44.3366 24.5885L52.6644 24.6049L51.4712 25.2882L49.7932 25.2844L47.4503 25.2793L45.1048 25.2743H44.343L44.3481 26.1777L44.3558 27.5189L44.3634 28.8614L44.366 29.3548L43.1741 30.0368L43.1448 25.2692H42.7594L40.4165 25.2641L33.6481 25.2502V25.4033L33.6571 26.7445L33.6647 28.087L33.6724 29.4282L33.68 30.7707V30.8631H33.8408L36.1863 30.8681L38.5292 30.8732L40.8746 30.8783H41.699L40.5071 31.5628L33.6839 31.5489L33.6877 32.1132L33.6954 33.4544L33.703 34.7969L33.7068 35.4536L33.1109 35.7952L32.5111 35.4523L32.5035 34.1111L32.4958 32.7686L32.4882 31.5464L25.6649 31.5324L24.4641 30.8454L26.8083 30.8504L29.1538 30.8555L32.4843 30.8618L32.4792 30.0849L32.4716 28.7424L32.4627 27.4L32.455 26.0575L32.4499 25.2489L28.6918 25.2414L26.3489 25.2363L24.0035 25.2312L22.647 25.2287L22.6585 27.1355L22.6661 28.478L22.6738 29.8192L21.4743 29.1322L21.4666 27.7909L21.459 26.4484L21.4513 25.2262L14.6281 25.2122L13.4273 24.5252L15.7702 24.5303L18.1143 24.534L21.4449 24.5404L21.4398 23.7635L21.4322 22.421L21.4245 21.0798L21.4117 18.9288L20.0004 18.9262L17.6549 18.9212L15.3108 18.9161L12.9653 18.9111L11.6089 18.9085L11.6203 20.8153L11.628 22.1578L11.6356 23.499L10.4349 22.812L10.4106 18.906L8.27571 18.9022L5.93027 18.8971L3.58737 18.8921L2.9774 18.5428L3.56313 18.2075L4.73075 18.2101L7.07619 18.2151L9.42036 18.2202L10.4068 18.2227L10.3825 14.3054L11.5744 13.6234L11.5769 14.1067L11.5846 15.4492L11.6012 18.1342V18.2265H11.762L14.1074 18.2316L16.4503 18.2366L21.4066 18.2468L21.399 17.0561L21.3824 14.3711L21.3747 13.0299V12.8098L13.0253 12.7933L14.2172 12.1113H15.0977L17.4431 12.1176L19.786 12.1227L21.3671 12.1252L21.3645 11.6887L21.3569 10.3462L21.3492 9.005L21.3428 8.03199L22.5347 7.34999L22.564 12.129L24.4756 12.1328L32.3669 12.148L32.3542 9.95525L32.3465 8.61276L32.3389 7.27154L32.335 6.71228L31.3576 6.70975L29.0147 6.70469L26.6692 6.69963L23.6832 6.6933L24.875 6.0113H25.4697L27.8151 6.01763L30.158 6.02142L32.3338 6.02522V5.92906L32.3248 4.58657L32.3172 3.24535L32.3095 1.90287V1.75609L32.9029 1.41573L33.5039 1.75989L33.509 2.58993L33.5167 3.93241L33.5295 6.02775L37.1905 6.03534L39.536 6.0404L40.9856 6.04293L42.1864 6.72999L40.7368 6.72746L38.3913 6.7224L36.0485 6.71734L33.5358 6.71228L33.5435 7.9586L33.5512 9.29982L33.5588 10.6423L33.5665 11.9835V12.1493L38.5458 12.1594L40.8886 12.1645L43.0644 12.1683V12.0721L43.0554 10.7296L43.0478 9.38839L43.0401 8.04591L43.035 7.21587L44.2345 7.90293L44.2601 12.1708L45.577 12.1733L47.9199 12.1784L50.2653 12.1834L51.715 12.186L52.9158 12.873L44.4311 12.8566H44.2639L44.2716 14.1016L44.2792 15.4429L44.2971 18.2923H44.5855L46.9296 18.2974L49.2751 18.3024L51.618 18.3075L53.7937 18.3113L53.7631 13.3589L54.9639 14.046L54.969 14.876L54.9766 16.2185L54.9843 17.5597L54.9894 18.3138L62.4456 18.329L63.0364 18.6668L62.4303 19.0135V19.0123Z" stroke="#AECBE3" stroke-width="0.5" stroke-miterlimit="10"/>
<path d="M63.0364 18.6658L65.3767 18.6709L65.378 23.255L33.1173 42.9267L0.631958 23.6473V18.5405L2.97358 18.5456" stroke="#AECBE3" stroke-width="0.5" stroke-miterlimit="10"/>
<path d="M32.8998 1.4132L32.891 0.0732422" stroke="#AECBE3" stroke-width="0.5" stroke-miterlimit="10"/>
<path d="M33.1095 35.7979L33.1171 37.1378" stroke="#AECBE3" stroke-width="0.5" stroke-miterlimit="10"/>
<path d="M48.9713 10.6147L48.9331 10.6362C48.6932 10.7741 48.3001 10.7728 48.0589 10.6349L46.9296 9.98835C46.6871 9.84916 46.6871 9.62647 46.927 9.48855L46.9653 9.46704" stroke="#AECBE3" stroke-width="0.5" stroke-miterlimit="10"/>
<path d="M17.0399 26.5979L17.0782 26.5763C17.3181 26.4384 17.7099 26.4384 17.951 26.5763L19.0804 27.2229C19.3228 27.3621 19.3241 27.5861 19.0829 27.724L19.0446 27.7455" stroke="#AECBE3" stroke-width="0.5" stroke-miterlimit="10"/>
<path d="M46.8593 27.9265L46.8197 27.9037C46.5773 27.7645 46.5773 27.5418 46.8172 27.4039L47.9376 26.7624C48.1775 26.6245 48.5692 26.6245 48.8104 26.7624L48.85 26.7852" stroke="#AECBE3" stroke-width="0.5" stroke-miterlimit="10"/>
<path d="M18.715 9.53394L18.7546 9.55671C18.997 9.69589 18.9983 9.91985 18.7571 10.0578L17.6367 10.6993C17.3968 10.8372 17.0038 10.8359 16.7626 10.698L16.723 10.6752" stroke="#AECBE3" stroke-width="0.5" stroke-miterlimit="10"/>
<path d="M57.5055 19.002L59.8497 19.0071L62.1951 19.0122H62.4287L63.0348 18.6655L62.444 18.3276L54.9878 18.3125L54.9827 17.5583L54.975 16.2171L54.9674 14.8746L54.9623 14.0446L53.7615 13.3575L53.7921 18.3099L51.6164 18.3061L49.2735 18.3011L46.928 18.296L44.5839 18.2909H44.2955L44.2776 15.4402L44.27 14.099L44.2623 12.8527H44.4295L52.9142 12.8704L51.7134 12.1833L50.2637 12.1808L47.9183 12.1757L45.5754 12.1707L44.2585 12.1681L44.233 7.90029L43.0334 7.21323L43.0385 8.04327L43.0462 9.38575L43.0539 10.727L43.0615 12.0695V12.1656L40.8858 12.1618L38.5429 12.1568L33.5649 12.1466V11.9809L33.5559 10.6397L33.5483 9.29718L33.5406 7.95596L33.533 6.70964L36.0456 6.7147L38.3885 6.71976L40.7339 6.72482L42.1836 6.72735L40.9828 6.04029L39.5331 6.03776L37.1877 6.0327L33.5266 6.02511L33.5138 3.92977L33.5062 2.58729L33.5011 1.75725L32.9 1.41309L32.3054 1.75345V1.90023L32.3143 3.24271L32.322 4.58393L32.3296 5.92642V6.02258L30.1539 6.01878L27.811 6.01499L25.4656 6.00993H24.8709L23.679 6.69066L26.6651 6.69698L29.0105 6.70205L31.3534 6.70711L32.3309 6.70964L32.3347 7.2689L32.3424 8.61012L32.35 9.95261L32.3628 12.1454L24.4715 12.1302L22.5599 12.1264L22.5306 7.34735L21.3387 8.02935L21.3451 9.00236L21.3527 10.3436L21.3604 11.6861L21.3629 12.1226L19.7819 12.1201L17.439 12.115L15.0935 12.1099H14.213L13.0212 12.7907L21.3693 12.8071V13.0273L21.3783 14.3685L21.3948 17.0535L21.4025 18.2441L16.4462 18.234L14.1033 18.2289L11.7578 18.2239H11.5971V18.1315L11.5805 15.4465L11.5728 14.1041L11.5703 13.6207L10.3784 14.3027L10.4026 18.2201L9.41622 18.2176L7.07206 18.2125L4.72661 18.2074L3.55899 18.2049L2.97327 18.5402L3.58324 18.8894L5.92613 18.8945L8.27158 18.8996L10.4065 18.9033L10.4307 22.8093L11.6315 23.4964L11.6239 22.1552L11.6162 20.8127L11.6047 18.9059L12.9612 18.9084L15.3066 18.9135L17.6508 18.9185L19.9963 18.9236L21.4076 18.9261L21.4204 21.0771L21.428 22.4184L21.4357 23.7608L21.4408 24.5377L18.1102 24.5314L15.766 24.5276L13.4231 24.5226L14.6239 25.2096L21.4472 25.2235L21.4548 26.4458L21.4625 27.7883L21.4701 29.1295L22.6697 29.8166L22.662 28.4754L22.6543 27.1329L22.6429 25.2261L23.9993 25.2286L26.3448 25.2336L28.6877 25.2387L32.4457 25.2463L32.4509 26.0548L32.4585 27.3973L32.4674 28.7398L32.4751 30.0823L32.4802 30.8592L29.1496 30.8529L26.8042 30.8478L24.46 30.8427L25.6608 31.5298L32.484 31.5437L32.4917 32.766L32.4993 34.1085L32.507 35.4497L33.1068 35.7926L33.7027 35.451L33.6989 34.7943L33.6912 33.4518L33.6836 32.1106L33.6797 31.5462L40.503 31.5602L41.6948 30.8782H40.8705L38.525 30.8718L36.1821 30.8668L33.8367 30.8617H33.6759V30.7693L33.667 29.4269L33.6593 28.0856L33.6516 26.7432L33.644 25.4019V25.2488L40.4111 25.2628L42.754 25.2678H43.1393L43.1687 30.0355L44.3606 29.3535L44.358 28.86L44.3504 27.5175L44.3427 26.1763L44.3376 25.2716H45.0994L47.4449 25.2779L49.7878 25.283L51.4658 25.2868L52.6589 24.6035L44.3312 24.5871L44.3248 23.4926L44.2968 18.9742L45.7834 18.9767L48.1263 18.9818L50.4717 18.9869L52.8146 18.9919L53.7921 18.9944L53.7959 19.5537L53.8036 20.8949L53.8113 22.2374L53.8189 23.5786L53.8215 23.9355L55.0146 23.2522L55.0121 22.9245L55.0044 21.582L54.9967 20.2408L54.9891 18.9944H55.1562L57.5017 18.9995L57.5055 19.002ZM43.0641 12.8527L43.0679 13.4119L43.0755 14.7532L43.0832 16.0956L43.0909 17.4369L43.096 18.2884L39.893 18.2821L37.5463 18.277L35.2034 18.272L33.5993 18.2682L33.5942 17.3508L33.5866 16.0096L33.5776 14.6659L33.57 13.3246L33.5674 12.8324L43.0653 12.8514L43.0641 12.8527ZM22.5995 18.2479L22.5663 12.8109H23.3281L25.6736 12.8172L28.0177 12.8223L32.3705 12.8312L32.3858 15.3225L32.3934 16.6638L32.4011 18.0062V18.2669L30.515 18.2631L28.1721 18.258L23.4825 18.2492H22.5995V18.2479ZM29.8323 24.558L27.4882 24.5542L22.7985 24.5453H22.6378V24.453L22.6288 23.1105L22.6212 21.7693L22.6033 18.9325L24.682 18.9362L27.0249 18.9413L29.3717 18.9464L31.7146 18.9514H32.4062L32.4087 19.3487L32.4164 20.69L32.4241 22.0324L32.4317 23.3737L32.4394 24.5643L29.8298 24.5592L29.8323 24.558ZM43.1087 20.1206L43.1164 21.4631L43.124 22.8043L43.1317 24.1468L43.1342 24.5833L33.6363 24.5643L33.6338 24.0582L33.6172 21.3732L33.6095 20.032L33.6032 18.9514H34.0587L36.4042 18.9565L38.7471 18.9616L41.0925 18.9666L43.0985 18.9704L43.1049 20.1193L43.1087 20.1206Z" stroke="#AECBE3" stroke-width="0.5" stroke-miterlimit="10"/>
<path d="M25.4654 6.01014L24.8707 6.00887L32.3039 1.75366L32.3052 1.90044L32.3129 3.24292L32.3205 4.58414L32.3295 5.92789V6.02279L30.1537 6.01899L27.8108 6.0152L25.4654 6.01014Z" stroke="#AECBE3" stroke-width="0.5" stroke-miterlimit="10"/>
<path d="M15.096 12.1114L14.2155 12.1089L21.3411 8.02954L21.3475 9.00256L21.3564 10.345L21.3641 11.6875L21.3666 12.1241L19.7856 12.1203L17.4414 12.1152L15.096 12.1114Z" stroke="#AECBE3" stroke-width="0.5" stroke-miterlimit="10"/>
<path d="M7.07245 18.2165L4.72701 18.2114L3.55939 18.2101L10.3788 14.3054L10.403 18.2228L9.41662 18.2215L7.07245 18.2165Z" stroke="#AECBE3" stroke-width="0.5" stroke-miterlimit="10"/>
<path d="M10.4312 22.8147L3.58368 18.8948L5.92657 18.8986L8.2733 18.9036L10.4069 18.9074L10.4312 22.8147Z" stroke="#AECBE3" stroke-width="0.5" stroke-miterlimit="10"/>
<path d="M33.5051 2.58761L33.5 1.75757L40.9817 6.04061L39.5321 6.03808L37.1866 6.03302L33.5268 6.02543L33.514 3.93009L33.5051 2.58761Z" stroke="#AECBE3" stroke-width="0.5" stroke-miterlimit="10"/>
<path d="M22.5331 7.34761L23.679 6.69092L26.6663 6.69724L29.0118 6.70231L31.3547 6.7061L32.3334 6.70863L32.336 7.26789L32.3449 8.61038L32.3526 9.95286L32.3666 12.1456L24.474 12.1304L22.5624 12.1254L22.5331 7.34761Z" stroke="#AECBE3" stroke-width="0.5" stroke-miterlimit="10"/>
<path d="M11.5732 14.1069L11.5706 13.6235L13.0241 12.7922L21.371 12.8087L21.3722 13.0288L21.3812 14.3701L21.3978 17.055L21.4041 18.2457L16.4491 18.2356L14.1049 18.2305L11.7595 18.2254H11.5987V18.1331L11.5821 15.4494L11.5732 14.1069Z" stroke="#AECBE3" stroke-width="0.5" stroke-miterlimit="10"/>
<path d="M32.372 12.8313L32.3874 15.3227L32.3937 16.6639L32.4027 18.0064L32.4039 18.267L30.5166 18.2632L28.1724 18.2582L23.4841 18.2493L22.5998 18.248L22.5679 12.811L23.3297 12.8123L25.6751 12.8174L28.0193 12.8224L32.372 12.8313Z" stroke="#AECBE3" stroke-width="0.5" stroke-miterlimit="10"/>
<path d="M38.3889 6.7213L40.7343 6.7251L42.184 6.7289L43.0326 7.21477L43.0377 8.04354L43.0453 9.38729L43.053 10.7272L43.0606 12.071V12.1659L40.8849 12.1621L38.542 12.157L33.564 12.1469L33.5627 11.9824L33.5551 10.6412L33.5474 9.29872L33.5398 7.95624L33.5321 6.71118L36.0447 6.71624L38.3889 6.7213Z" stroke="#AECBE3" stroke-width="0.5" stroke-miterlimit="10"/>
<path d="M18.1115 24.5367L15.766 24.5316L13.4231 24.5279L11.6302 23.5017L11.6226 22.1592L11.6137 20.8167L11.6022 18.9099L12.9587 18.9124L15.3054 18.9175L17.6495 18.9226L19.995 18.9276L21.4076 18.9302L21.4204 21.0812L21.428 22.4237L21.437 23.7661L21.4408 24.543L18.1115 24.5367Z" stroke="#AECBE3" stroke-width="0.5" stroke-miterlimit="10"/>
<path d="M21.4611 27.7925L21.4688 29.1337L14.6226 25.2151L21.4471 25.2277L21.4534 26.45L21.4611 27.7925Z" stroke="#AECBE3" stroke-width="0.5" stroke-miterlimit="10"/>
<path d="M44.2317 7.90186L51.7134 12.1849L50.2638 12.1811L47.9183 12.1773L45.5754 12.1722L44.2585 12.1697L44.2317 7.90186Z" stroke="#AECBE3" stroke-width="0.5" stroke-miterlimit="10"/>
<path d="M33.5699 13.3247L33.5674 12.8325L43.0653 12.8515L43.0678 13.412L43.0768 14.7532L43.0844 16.097L43.0934 17.4382L43.0985 18.2885L39.8955 18.2822L37.5488 18.2771L35.2059 18.2733L33.6018 18.2695L33.5967 17.3522L33.5878 16.0097L33.5789 14.6659L33.5699 13.3247Z" stroke="#AECBE3" stroke-width="0.5" stroke-miterlimit="10"/>
<path d="M22.6045 18.9326L24.6832 18.9364L27.0274 18.9415L29.3741 18.9465L31.717 18.9516L32.4087 18.9529L32.4112 19.3489L32.4189 20.6901L32.4278 22.0326L32.4355 23.3738L32.4431 24.5645L29.8335 24.5594L27.4881 24.5556L22.7997 24.5455H22.6389L22.6377 24.4531L22.63 23.1106L22.6211 21.7694L22.6045 18.9326Z" stroke="#AECBE3" stroke-width="0.5" stroke-miterlimit="10"/>
<path d="M33.6364 24.0621L33.6198 21.3771L33.6121 20.0359L33.6045 18.9553H34.0613L36.4068 18.9604L38.7497 18.9654L41.0964 18.9692L43.1024 18.9743L43.1101 20.1219L43.1177 21.4657L43.1254 22.8069L43.1343 24.1494L43.1368 24.5859L33.6389 24.5669L33.6364 24.0621Z" stroke="#AECBE3" stroke-width="0.5" stroke-miterlimit="10"/>
<path d="M52.9147 12.872L53.7633 13.3578L53.7926 18.3102L51.6169 18.3052L49.274 18.3014L46.9273 18.2963L44.5844 18.2912H44.296L44.2781 15.4418L44.2705 14.0993L44.2628 12.8542H44.43L52.9147 12.872Z" stroke="#AECBE3" stroke-width="0.5" stroke-miterlimit="10"/>
<path d="M29.151 30.8568L26.8055 30.8517L24.4626 30.8467L22.6697 29.8205L22.6621 28.4793L22.6544 27.1368L22.6429 25.23L23.9994 25.2325L26.3449 25.2376L28.689 25.2426L32.4458 25.2502L32.4509 26.0588L32.4599 27.4012L32.4688 28.7437L32.4765 30.0862L32.4816 30.8631L29.151 30.8568Z" stroke="#AECBE3" stroke-width="0.5" stroke-miterlimit="10"/>
<path d="M32.5022 34.1126L32.5098 35.4538L25.6624 31.5339L32.4856 31.5479L32.4932 32.7701L32.5022 34.1126Z" stroke="#AECBE3" stroke-width="0.5" stroke-miterlimit="10"/>
<path d="M54.968 14.8737L54.9629 14.0449L62.4446 18.328L54.9897 18.3128L54.9846 17.5587L54.9769 16.2174L54.968 14.8737Z" stroke="#AECBE3" stroke-width="0.5" stroke-miterlimit="10"/>
<path d="M43.1706 30.0381L41.698 30.8808L40.8736 30.8795L38.5282 30.8745L36.1853 30.8707L33.8386 30.8656H33.6778V30.7732L33.6688 29.4308L33.6612 28.0883L33.6535 26.7458L33.6446 25.4046L33.6433 25.2515L40.4129 25.2654L42.7558 25.2704H43.1412L43.1706 30.0381Z" stroke="#AECBE3" stroke-width="0.5" stroke-miterlimit="10"/>
<path d="M53.8246 23.5813L53.8258 23.9381L52.6608 24.6049L44.333 24.5885L44.3267 23.494L44.2986 18.9756L45.7852 18.9794L48.1294 18.9844L50.4748 18.9882L52.819 18.9933L53.7965 18.9946L53.8003 19.5551L53.808 20.8963L53.8156 22.2401L53.8246 23.5813Z" stroke="#AECBE3" stroke-width="0.5" stroke-miterlimit="10"/>
<path d="M62.4302 19.0125L55.0187 23.2551L55.0174 22.9273L55.0085 21.5849L55.0008 20.2424L54.9932 18.9973H55.1603L57.5058 19.0024L59.8512 19.0074L62.1967 19.0125H62.4302Z" stroke="#AECBE3" stroke-width="0.5" stroke-miterlimit="10"/>
<path d="M49.789 25.2845L51.467 25.2883L44.3618 29.3563L44.3579 28.8628L44.3503 27.5203L44.3439 26.1791L44.3375 25.2744L45.0993 25.2757L47.4461 25.2807L49.789 25.2845Z" stroke="#AECBE3" stroke-width="0.5" stroke-miterlimit="10"/>
<path d="M40.5055 31.5642L33.7052 35.4563L33.7014 34.7996L33.6937 33.4571L33.6848 32.1146L33.6823 31.5503L40.5055 31.5642Z" stroke="#AECBE3" stroke-width="0.5" stroke-miterlimit="10"/>
<path d="M31.0616 2.51538L30.7311 3.66427" stroke="#AECBE3" stroke-width="0.5" stroke-miterlimit="10"/>
<path d="M29.8926 3.24292L29.5634 4.39055" stroke="#AECBE3" stroke-width="0.5" stroke-miterlimit="10"/>
<path d="M28.725 3.88818L28.3958 5.03708" stroke="#AECBE3" stroke-width="0.5" stroke-miterlimit="10"/>
<path d="M27.5559 4.54126L27.2267 5.68889" stroke="#AECBE3" stroke-width="0.5" stroke-miterlimit="10"/>
<path d="M23.9914 6.69092L23.7145 7.65634" stroke="#AECBE3" stroke-width="0.5" stroke-miterlimit="10"/>
<path d="M22.9023 7.23242L22.5399 8.34715" stroke="#AECBE3" stroke-width="0.5" stroke-miterlimit="10"/>
<path d="M20.5234 8.57495L20.1597 9.68968" stroke="#AECBE3" stroke-width="0.5" stroke-miterlimit="10"/>
<path d="M15.8851 11.189L15.5814 12.124" stroke="#AECBE3" stroke-width="0.5" stroke-miterlimit="10"/>
<path d="M13.4532 12.7922L13.1495 13.726" stroke="#AECBE3" stroke-width="0.5" stroke-miterlimit="10"/>
<path d="M12.3883 13.1958L12.0106 14.3561" stroke="#AECBE3" stroke-width="0.5" stroke-miterlimit="10"/>
<path d="M10.0746 14.5332L9.69684 15.6935" stroke="#AECBE3" stroke-width="0.5" stroke-miterlimit="10"/>
<path d="M8.88578 15.2012L8.50806 16.3627" stroke="#AECBE3" stroke-width="0.5" stroke-miterlimit="10"/>
<path d="M7.71677 15.8706L7.33905 17.0322" stroke="#AECBE3" stroke-width="0.5" stroke-miterlimit="10"/>
<path d="M6.56827 16.5388L6.19055 17.7004" stroke="#AECBE3" stroke-width="0.5" stroke-miterlimit="10"/>
<path d="M5.37409 17.208L5.04486 18.2215" stroke="#AECBE3" stroke-width="0.5" stroke-miterlimit="10"/>
<path d="M4.20094 17.8762L4.08099 18.2457" stroke="#AECBE3" stroke-width="0.5" stroke-miterlimit="10"/>
<path d="M19.3924 9.2063L19.03 10.321" stroke="#AECBE3" stroke-width="0.5" stroke-miterlimit="10"/>
<path d="M17.0076 10.7751L16.723 11.652" stroke="#AECBE3" stroke-width="0.5" stroke-miterlimit="10"/>
<path d="M18.0786 10.4451L17.877 11.0663" stroke="#AECBE3" stroke-width="0.5" stroke-miterlimit="10"/>
<path d="M26.3885 5.23462L26.1652 6.01025" stroke="#AECBE3" stroke-width="0.5" stroke-miterlimit="10"/>
<path d="M32.2289 1.92212L31.8997 3.06975" stroke="#AECBE3" stroke-width="0.5" stroke-miterlimit="10"/>
</g>
<defs>
<clipPath id="clip0_7_519">
<rect width="65" height="43" fill="white" transform="translate(0.504211)"/>
</clipPath>
</defs>
</svg>
