<svg width="191" height="123" viewBox="0 0 191 123" fill="none" xmlns="http://www.w3.org/2000/svg">
<g opacity="0.5" clip-path="url(#clip0_1_4558)">
<path d="M187.12 14.7102L186.753 14.9337" stroke="black" stroke-width="0.853659" stroke-miterlimit="10"/>
<path d="M26.6893 108.512C26.6893 110.628 25.8818 112.551 24.5623 114.002C24.0128 114.612 23.3587 115.143 22.6447 115.56L22.3718 115.724L13.0341 121.415C14.7349 120.273 15.9835 118.517 16.4582 116.471C16.604 115.876 16.675 115.251 16.675 114.612C16.675 110.766 14.0135 107.537 10.4212 106.652C9.78575 106.496 9.11664 106.414 8.4251 106.414C7.00464 106.414 5.67015 106.771 4.4964 107.403L13.6546 101.835L13.6846 101.813C14.4434 101.273 15.3069 100.864 16.2376 100.608C16.9367 100.407 17.6805 100.306 18.4431 100.306C22.9998 100.306 26.6855 103.981 26.6855 108.515L26.6893 108.512Z" stroke="black" stroke-width="0.853659" stroke-miterlimit="10"/>
<path d="M16.6789 114.612C16.6789 115.251 16.6079 115.876 16.4621 116.471C15.9874 118.517 14.7389 120.269 13.038 121.415L12.4175 121.794C11.2363 122.441 9.87938 122.813 8.42901 122.813C3.87979 122.813 0.186584 119.146 0.186584 114.612C0.186584 111.699 1.71545 109.144 4.01436 107.693L4.50405 107.4C5.67406 106.767 7.01228 106.41 8.43275 106.41C9.12429 106.41 9.78966 106.496 10.4289 106.648C14.0211 107.537 16.6827 110.766 16.6827 114.608L16.6789 114.612Z" stroke="black" stroke-width="0.853659" stroke-miterlimit="10"/>
<path d="M6.1563 114.252C6.1563 114.531 6.01052 114.769 5.78249 114.899L5.76007 114.914L4.90031 115.438L4.83677 115.468C4.72836 115.531 4.60501 115.561 4.47044 115.561C4.05177 115.561 3.71161 115.23 3.71161 114.813C3.71161 114.542 3.84992 114.304 4.07046 114.174L4.10784 114.144L4.95265 113.634H4.96012C5.076 113.541 5.233 113.497 5.39374 113.497C5.8124 113.497 6.15256 113.835 6.15256 114.252H6.1563Z" stroke="black" stroke-width="0.853659" stroke-miterlimit="10"/>
<path d="M10.4484 115.539C10.4484 115.817 10.3026 116.063 10.0746 116.186L10.0521 116.201L9.19238 116.725L9.14005 116.762C9.03165 116.825 8.90829 116.855 8.76624 116.855C8.34758 116.855 8.01489 116.517 8.01489 116.1C8.01489 115.829 8.1532 115.598 8.36253 115.468L8.40739 115.438L9.25219 114.929V114.921C9.37555 114.836 9.52507 114.783 9.68581 114.783C10.1045 114.783 10.4446 115.122 10.4446 115.539H10.4484Z" stroke="black" stroke-width="0.853659" stroke-miterlimit="10"/>
<path d="M190.813 8.06374C190.813 11.0207 189.176 13.5946 186.754 14.9374C186.724 14.9522 186.698 14.9671 186.668 14.982L24.5631 114.002C25.8826 112.552 26.69 110.629 26.69 108.512C26.69 103.978 23.0043 100.304 18.4476 100.304C17.6888 100.304 16.9412 100.404 16.2422 100.605L178.164 1.75176L178.28 1.67365C179.577 0.732614 181.173 0.182129 182.896 0.182129C187.266 0.182129 190.813 3.71193 190.813 8.06002V8.06374Z" stroke="black" stroke-width="0.853659" stroke-miterlimit="10"/>
<path d="M45.0026 96.3798L173.704 17.8054" stroke="black" stroke-width="0.853659" stroke-miterlimit="10"/>
<path d="M30.544 96.3798L159.242 17.8054" stroke="black" stroke-width="0.853659" stroke-miterlimit="10"/>
<path d="M59.5289 84.7257L55.189 87.3145L55.133 86.2656L58.0449 84.5286L58.5196 84.2422C59.2972 84.3575 59.5289 84.7294 59.5289 84.7294V84.7257Z" stroke="black" stroke-width="0.853659" stroke-miterlimit="10"/>
<path d="M55.1931 87.3147L50.3672 86.5596C50.3672 86.5596 50.8719 85.9719 51.3765 85.6707L51.7653 85.7339L55.1408 86.2658L55.1968 87.3147H55.1931Z" stroke="black" stroke-width="0.853659" stroke-miterlimit="10"/>
<path d="M58.5199 84.2387L55.1369 86.2621L51.3727 85.667L54.6734 83.7068L58.5199 84.2387Z" stroke="black" stroke-width="0.853659" stroke-miterlimit="10"/>
<path d="M48.1571 91.5407L43.8172 94.1294L43.7611 93.0805L46.6731 91.3435L47.1478 91.0571C47.9253 91.1724 48.1571 91.5444 48.1571 91.5444V91.5407Z" stroke="black" stroke-width="0.853659" stroke-miterlimit="10"/>
<path d="M43.8172 94.1262L38.9914 93.3711C38.9914 93.3711 39.496 92.7835 40.0007 92.4822L40.3894 92.5454L43.7649 93.0773L43.821 94.1262H43.8172Z" stroke="black" stroke-width="0.853659" stroke-miterlimit="10"/>
<path d="M47.1476 91.0536L43.7647 93.077L40.0004 92.4819L43.2974 90.5217L47.1476 91.0536Z" stroke="black" stroke-width="0.853659" stroke-miterlimit="10"/>
<path d="M70.7583 77.9083L66.4184 80.4971L66.3623 79.4482L69.2743 77.7112L69.749 77.4248C70.5265 77.5401 70.7583 77.9121 70.7583 77.9121V77.9083Z" stroke="black" stroke-width="0.853659" stroke-miterlimit="10"/>
<path d="M66.4225 80.4939L61.5966 79.7388C61.5966 79.7388 62.1013 79.1511 62.6059 78.8499L62.9947 78.9131L66.3701 79.445L66.4262 80.4939H66.4225Z" stroke="black" stroke-width="0.853659" stroke-miterlimit="10"/>
<path d="M69.7492 77.4213L66.3663 79.4447L62.6021 78.8496L65.9028 76.8894L69.7492 77.4213Z" stroke="black" stroke-width="0.853659" stroke-miterlimit="10"/>
<path d="M81.9271 71.466L77.5872 74.0547L77.5312 73.0058L80.4431 71.2688L80.9178 70.9824C81.6954 71.0977 81.9271 71.4697 81.9271 71.4697V71.466Z" stroke="black" stroke-width="0.853659" stroke-miterlimit="10"/>
<path d="M77.5913 74.0549L72.7654 73.2999C72.7654 73.2999 73.2701 72.7122 73.7747 72.4109L74.1635 72.4741L77.539 73.006L77.595 74.0549H77.5913Z" stroke="black" stroke-width="0.853659" stroke-miterlimit="10"/>
<path d="M80.9218 70.9826L77.5351 73.006L73.7709 72.4109L77.0716 70.447L80.9218 70.9826Z" stroke="black" stroke-width="0.853659" stroke-miterlimit="10"/>
<path d="M93.1347 64.685L88.7948 67.2737L88.7387 66.2248L91.6507 64.4878L92.1254 64.2014C92.9029 64.3167 93.1347 64.6887 93.1347 64.6887V64.685Z" stroke="black" stroke-width="0.853659" stroke-miterlimit="10"/>
<path d="M88.7949 67.2702L83.969 66.5152C83.969 66.5152 84.4737 65.9275 84.9783 65.6262L85.3671 65.6895L88.7425 66.2213L88.7986 67.2702H88.7949Z" stroke="black" stroke-width="0.853659" stroke-miterlimit="10"/>
<path d="M92.1252 64.198L88.7423 66.2214L84.9781 65.6262L88.275 63.6624L92.1252 64.198Z" stroke="black" stroke-width="0.853659" stroke-miterlimit="10"/>
<path d="M104.057 57.6976L99.7169 60.2864L99.6608 59.2375L102.573 57.5005L103.047 57.2141C103.825 57.3294 104.057 57.7014 104.057 57.7014V57.6976Z" stroke="black" stroke-width="0.853659" stroke-miterlimit="10"/>
<path d="M99.7169 60.2827L94.8911 59.5276C94.8911 59.5276 95.3957 58.94 95.9003 58.6387L96.2891 58.7019L99.6646 59.2338L99.7206 60.2827H99.7169Z" stroke="black" stroke-width="0.853659" stroke-miterlimit="10"/>
<path d="M103.047 57.2101L99.6643 59.2335L95.9001 58.6384L99.1971 56.6782L103.047 57.2101Z" stroke="black" stroke-width="0.853659" stroke-miterlimit="10"/>
<path d="M115.14 51.1163L110.8 53.7051L110.744 52.6562L113.656 50.9192L114.131 50.6328C114.908 50.7481 115.14 51.1201 115.14 51.1201V51.1163Z" stroke="black" stroke-width="0.853659" stroke-miterlimit="10"/>
<path d="M110.8 53.7019L105.974 52.9468C105.974 52.9468 106.479 52.3591 106.984 52.0579L107.372 52.1211L110.748 52.653L110.804 53.7019H110.8Z" stroke="black" stroke-width="0.853659" stroke-miterlimit="10"/>
<path d="M114.131 50.6293L110.748 52.6527L106.983 52.0576L110.28 50.0974L114.131 50.6293Z" stroke="black" stroke-width="0.853659" stroke-miterlimit="10"/>
<path d="M126.287 44.3322L121.947 46.9209L121.891 45.872L124.803 44.135L125.278 43.8486C126.055 43.9639 126.287 44.3359 126.287 44.3359V44.3322Z" stroke="black" stroke-width="0.853659" stroke-miterlimit="10"/>
<path d="M121.951 46.9211L117.125 46.1661C117.125 46.1661 117.63 45.5784 118.134 45.2771L118.523 45.3403L121.899 45.8722L121.955 46.9211H121.951Z" stroke="black" stroke-width="0.853659" stroke-miterlimit="10"/>
<path d="M125.278 43.8451L121.895 45.8685L118.131 45.2734L121.431 43.3132L125.278 43.8451Z" stroke="black" stroke-width="0.853659" stroke-miterlimit="10"/>
<path d="M137.378 37.3356L133.038 39.9244L132.982 38.8755L135.894 37.1385L136.368 36.8521C137.146 36.9674 137.378 37.3393 137.378 37.3393V37.3356Z" stroke="black" stroke-width="0.853659" stroke-miterlimit="10"/>
<path d="M133.042 39.9211L128.216 39.1661C128.216 39.1661 128.721 38.5784 129.225 38.2771L129.614 38.3403L132.989 38.8722L133.045 39.9211H133.042Z" stroke="black" stroke-width="0.853659" stroke-miterlimit="10"/>
<path d="M136.372 36.8485L132.986 38.8719L129.221 38.2768L132.522 36.3167L136.372 36.8485Z" stroke="black" stroke-width="0.853659" stroke-miterlimit="10"/>
<path d="M148.928 30.5031L144.588 33.0918L144.532 32.0429L147.444 30.3059L147.919 30.0195C148.696 30.1348 148.928 30.5068 148.928 30.5068V30.5031Z" stroke="black" stroke-width="0.853659" stroke-miterlimit="10"/>
<path d="M144.588 33.092L139.762 32.337C139.762 32.337 140.267 31.7493 140.772 31.448L141.16 31.5112L144.536 32.0431L144.592 33.092H144.588Z" stroke="black" stroke-width="0.853659" stroke-miterlimit="10"/>
<path d="M147.919 30.0197L144.536 32.0431L140.771 31.448L144.068 29.4841L147.919 30.0197Z" stroke="black" stroke-width="0.853659" stroke-miterlimit="10"/>
<path d="M160.027 23.734L155.687 26.3228L155.631 25.2739L158.543 23.5369L159.018 23.2505C159.795 23.3658 160.027 23.7377 160.027 23.7377V23.734Z" stroke="black" stroke-width="0.853659" stroke-miterlimit="10"/>
<path d="M155.687 26.3196L150.861 25.5645C150.861 25.5645 151.366 24.9768 151.871 24.6755L152.259 24.7388L155.635 25.2707L155.691 26.3196H155.687Z" stroke="black" stroke-width="0.853659" stroke-miterlimit="10"/>
<path d="M159.017 23.247L155.634 25.2704L151.87 24.6753L155.167 22.7151L159.017 23.247Z" stroke="black" stroke-width="0.853659" stroke-miterlimit="10"/>
<path d="M170.96 17.0241L166.62 19.6128L166.564 18.5639L169.476 16.8269L169.951 16.5405C170.728 16.6558 170.96 17.0278 170.96 17.0278V17.0241Z" stroke="black" stroke-width="0.853659" stroke-miterlimit="10"/>
<path d="M166.624 19.6096L161.798 18.8545C161.798 18.8545 162.303 18.2669 162.808 17.9656L163.196 18.0288L166.572 18.5607L166.628 19.6096H166.624Z" stroke="black" stroke-width="0.853659" stroke-miterlimit="10"/>
<path d="M169.955 16.537L166.568 18.5604L162.804 17.9653L166.105 16.0051L169.955 16.537Z" stroke="black" stroke-width="0.853659" stroke-miterlimit="10"/>
</g>
<defs>
<clipPath id="clip0_1_4558">
<rect width="191" height="123" fill="white"/>
</clipPath>
</defs>
</svg>
