<svg width="57" height="34" viewBox="0 0 57 34" fill="none" xmlns="http://www.w3.org/2000/svg">
<g opacity="0.5" clip-path="url(#clip0_7_731)">
<path d="M1.31622 13.4545L35.1944 32.83L55.6347 21.104L21.7565 1.78979L1.31622 13.4545Z" stroke="#AECBE3" stroke-width="0.5" stroke-miterlimit="10"/>
<path d="M13.7147 6.37906L47.492 25.7754L48.1914 25.3748L14.429 5.97095L13.7147 6.37906Z" stroke="#AECBE3" stroke-width="0.5" stroke-miterlimit="10"/>
<path d="M11.2673 7.77523L11.9998 7.35815L45.7651 26.765L45.0537 27.1731L11.2673 7.77523Z" stroke="#AECBE3" stroke-width="0.5" stroke-miterlimit="10"/>
<path d="M8.87512 9.13986L42.6104 28.5751L43.3052 28.1775L9.42707 8.82593L8.87512 9.13986Z" stroke="#AECBE3" stroke-width="0.5" stroke-miterlimit="10"/>
<path d="M51.3212 21.1514L52.7048 20.3591L54.0734 21.1753L52.7469 21.9437L51.3212 21.1514Z" stroke="#AECBE3" stroke-width="0.5" stroke-miterlimit="10"/>
<path d="M20.3681 3.40412L21.7532 2.61182L23.1219 3.42803L21.7954 4.19642L20.3681 3.40412Z" stroke="#AECBE3" stroke-width="0.5" stroke-miterlimit="10"/>
<path d="M2.87286 13.4124L4.2565 12.6201L5.62511 13.4363L4.29862 14.2047L2.87286 13.4124Z" stroke="#AECBE3" stroke-width="0.5" stroke-miterlimit="10"/>
<path d="M33.8936 31.127L35.2787 30.3347L36.6473 31.1509L35.3208 31.9208L33.8936 31.127Z" stroke="#AECBE3" stroke-width="0.5" stroke-miterlimit="10"/>
<path d="M31.9363 10.1417L40.8729 15.3963L42.5092 14.4381L33.5305 9.22388L31.9363 10.1417Z" stroke="#AECBE3" stroke-width="0.5" stroke-miterlimit="10"/>
<path d="M34.0484 10.9295L39.428 14.0628C39.6792 14.2093 39.989 14.2078 40.2387 14.0628L40.2627 14.0493C40.4793 13.9223 40.4778 13.6113 40.2612 13.4858L34.853 10.3674C34.6048 10.2239 34.2995 10.2239 34.0514 10.3674C33.8333 10.493 33.8333 10.8054 34.0514 10.931L34.0484 10.9295Z" stroke="#AECBE3" stroke-width="0.5" stroke-miterlimit="10"/>
<path d="M42.6775 15.0509L42.9587 15.2019C42.9918 15.2199 43.0339 15.2184 43.0655 15.1989L43.0715 15.1959C43.1437 15.1526 43.1407 15.0464 43.0655 15.0091L42.7783 14.8626C42.7452 14.8461 42.7061 14.8461 42.6745 14.8656C42.6023 14.9074 42.6038 15.0136 42.6775 15.0524V15.0509Z" stroke="#AECBE3" stroke-width="0.5" stroke-miterlimit="10"/>
<path d="M44.4466 16.0375L44.7278 16.1885C44.7609 16.2064 44.803 16.2049 44.8346 16.1855L44.8406 16.1825C44.9128 16.1392 44.9098 16.033 44.8346 15.9956L44.5474 15.8491C44.5143 15.8327 44.4752 15.8327 44.4436 15.8521C44.3714 15.894 44.3729 16.0001 44.4466 16.039V16.0375Z" stroke="#AECBE3" stroke-width="0.5" stroke-miterlimit="10"/>
<path d="M46.1595 16.9838L46.4407 17.1348C46.4738 17.1527 46.5159 17.1512 46.5475 17.1318L46.5535 17.1288C46.6257 17.0854 46.6227 16.9793 46.5475 16.9419L46.2603 16.7954C46.2272 16.779 46.1881 16.779 46.1565 16.7984C46.0843 16.8403 46.0858 16.9464 46.1595 16.9853V16.9838Z" stroke="#AECBE3" stroke-width="0.5" stroke-miterlimit="10"/>
<path d="M47.9338 17.9765L48.2151 18.1274C48.2482 18.1454 48.2903 18.1439 48.3219 18.1245L48.3279 18.1215C48.4001 18.0781 48.3971 17.972 48.3219 17.9346L48.0346 17.7881C48.0015 17.7717 47.9624 17.7717 47.9308 17.7911C47.8587 17.833 47.8602 17.9391 47.9338 17.978V17.9765Z" stroke="#AECBE3" stroke-width="0.5" stroke-miterlimit="10"/>
<path d="M49.6467 18.9691L49.928 19.1201C49.9611 19.1381 50.0032 19.1366 50.0348 19.1171L50.0408 19.1141C50.113 19.0708 50.11 18.9647 50.0348 18.9273L49.7475 18.7808C49.7144 18.7643 49.6753 18.7643 49.6437 18.7838C49.5715 18.8256 49.573 18.9318 49.6467 18.9706V18.9691Z" stroke="#AECBE3" stroke-width="0.5" stroke-miterlimit="10"/>
<path d="M51.3767 19.9706L51.6579 20.1216C51.691 20.1395 51.7331 20.138 51.7647 20.1186L51.7707 20.1156C51.8429 20.0723 51.8399 19.9661 51.7647 19.9287L51.4774 19.7822C51.4443 19.7658 51.4052 19.7658 51.3737 19.7852C51.3015 19.8271 51.303 19.9332 51.3767 19.9721V19.9706Z" stroke="#AECBE3" stroke-width="0.5" stroke-miterlimit="10"/>
<path d="M41.8101 15.5158L42.0913 15.6668C42.1244 15.6847 42.1665 15.6832 42.1981 15.6638L42.2041 15.6608C42.2763 15.6174 42.2733 15.5113 42.1981 15.4739L41.9108 15.3274C41.8777 15.311 41.8386 15.311 41.8071 15.3304C41.7349 15.3723 41.7364 15.4784 41.8101 15.5173V15.5158Z" stroke="#AECBE3" stroke-width="0.5" stroke-miterlimit="10"/>
<path d="M43.5792 16.5026L43.8604 16.6536C43.8935 16.6715 43.9356 16.67 43.9672 16.6506L43.9732 16.6476C44.0454 16.6042 44.0424 16.4981 43.9672 16.4607L43.6799 16.3142C43.6468 16.2978 43.6077 16.2978 43.5762 16.3172C43.504 16.3591 43.5055 16.4652 43.5792 16.5041V16.5026Z" stroke="#AECBE3" stroke-width="0.5" stroke-miterlimit="10"/>
<path d="M45.2905 17.4489L45.5717 17.5999C45.6048 17.6178 45.6469 17.6163 45.6785 17.5969L45.6845 17.5939C45.7567 17.5505 45.7537 17.4444 45.6785 17.407L45.3912 17.2605C45.3582 17.2441 45.3191 17.2441 45.2875 17.2635C45.2153 17.3054 45.2168 17.4115 45.2905 17.4504V17.4489Z" stroke="#AECBE3" stroke-width="0.5" stroke-miterlimit="10"/>
<path d="M47.0664 18.4413L47.3477 18.5923C47.3807 18.6102 47.4229 18.6087 47.4544 18.5893L47.4605 18.5863C47.5326 18.543 47.5296 18.4368 47.4544 18.3995L47.1672 18.2529C47.1341 18.2365 47.095 18.2365 47.0634 18.2559C46.9912 18.2978 46.9927 18.4039 47.0664 18.4428V18.4413Z" stroke="#AECBE3" stroke-width="0.5" stroke-miterlimit="10"/>
<path d="M48.7793 19.434L49.0605 19.585C49.0936 19.6029 49.1357 19.6014 49.1673 19.582L49.1733 19.579C49.2455 19.5356 49.2425 19.4295 49.1673 19.3921L48.8801 19.2456C48.847 19.2292 48.8079 19.2292 48.7763 19.2486C48.7041 19.2905 48.7056 19.3966 48.7793 19.4355V19.434Z" stroke="#AECBE3" stroke-width="0.5" stroke-miterlimit="10"/>
<path d="M50.5089 20.4354L50.7901 20.5864C50.8232 20.6044 50.8653 20.6029 50.8969 20.5834L50.9029 20.5805C50.9751 20.5371 50.9721 20.431 50.8969 20.3936L50.6096 20.2471C50.5765 20.2306 50.5374 20.2306 50.5059 20.2501C50.4337 20.2919 50.4352 20.3981 50.5089 20.4369V20.4354Z" stroke="#AECBE3" stroke-width="0.5" stroke-miterlimit="10"/>
<path d="M23.5847 4.1022L23.866 4.25318C23.8991 4.27112 23.9412 4.26963 23.9727 4.25019L23.9788 4.2472C24.051 4.20385 24.0479 4.09771 23.9727 4.06034L23.6855 3.91384C23.6524 3.89739 23.6133 3.89739 23.5817 3.91683C23.5095 3.95869 23.511 4.06482 23.5847 4.10369V4.1022Z" stroke="#AECBE3" stroke-width="0.5" stroke-miterlimit="10"/>
<path d="M25.3538 5.08877L25.6351 5.23975C25.6682 5.25769 25.7103 5.2562 25.7419 5.23676L25.7479 5.23377C25.8201 5.19042 25.817 5.08428 25.7419 5.04691L25.4546 4.90041C25.4215 4.88397 25.3824 4.88397 25.3508 4.9034C25.2786 4.94526 25.2801 5.0514 25.3538 5.09026V5.08877Z" stroke="#AECBE3" stroke-width="0.5" stroke-miterlimit="10"/>
<path d="M27.0667 6.03506L27.348 6.18604C27.381 6.20398 27.4232 6.20249 27.4547 6.18305L27.4608 6.18006C27.5329 6.13671 27.5299 6.03057 27.4547 5.9932L27.1675 5.8467C27.1344 5.83026 27.0953 5.83026 27.0637 5.84969C26.9915 5.89155 26.993 5.99768 27.0667 6.03655V6.03506Z" stroke="#AECBE3" stroke-width="0.5" stroke-miterlimit="10"/>
<path d="M28.8411 7.02627L29.1223 7.17725C29.1554 7.19519 29.1975 7.1937 29.2291 7.17426L29.2351 7.17127C29.3073 7.12792 29.3043 7.02178 29.2291 6.98441L28.9418 6.83791C28.9088 6.82147 28.8696 6.82147 28.8381 6.8409C28.7659 6.88276 28.7674 6.9889 28.8411 7.02776V7.02627Z" stroke="#AECBE3" stroke-width="0.5" stroke-miterlimit="10"/>
<path d="M30.554 8.02041L30.8352 8.1714C30.8683 8.18933 30.9104 8.18784 30.942 8.16841L30.948 8.16542C31.0202 8.12206 31.0172 8.01592 30.942 7.97855L30.6547 7.83205C30.6216 7.81561 30.5825 7.81561 30.551 7.83504C30.4788 7.8769 30.4803 7.98304 30.554 8.0219V8.02041Z" stroke="#AECBE3" stroke-width="0.5" stroke-miterlimit="10"/>
<path d="M32.2839 9.02041L32.5651 9.17139C32.5982 9.18933 32.6403 9.18784 32.6719 9.1684L32.6779 9.16541C32.7501 9.12206 32.7471 9.01592 32.6719 8.97855L32.3847 8.83205C32.3516 8.81561 32.3125 8.81561 32.2809 8.83504C32.2087 8.8769 32.2102 8.98304 32.2839 9.0219V9.02041Z" stroke="#AECBE3" stroke-width="0.5" stroke-miterlimit="10"/>
<path d="M22.7173 4.56704L22.9985 4.71803C23.0316 4.73596 23.0737 4.73447 23.1053 4.71504L23.1113 4.71205C23.1835 4.66869 23.1805 4.56256 23.1053 4.52518L22.8181 4.37868C22.785 4.36224 22.7459 4.36224 22.7143 4.38167C22.6421 4.42353 22.6436 4.52967 22.7173 4.56854V4.56704Z" stroke="#AECBE3" stroke-width="0.5" stroke-miterlimit="10"/>
<path d="M24.4845 5.55386L24.7657 5.70484C24.7988 5.72278 24.8409 5.72129 24.8725 5.70185L24.8785 5.69886C24.9507 5.65551 24.9477 5.54937 24.8725 5.512L24.5853 5.3655C24.5522 5.34905 24.5131 5.34905 24.4815 5.36849C24.4093 5.41035 24.4108 5.51648 24.4845 5.55535V5.55386Z" stroke="#AECBE3" stroke-width="0.5" stroke-miterlimit="10"/>
<path d="M26.1977 6.50015L26.4789 6.65113C26.512 6.66907 26.5541 6.66757 26.5857 6.64814L26.5917 6.64515C26.6639 6.6018 26.6609 6.49566 26.5857 6.45829L26.2985 6.31179C26.2654 6.29534 26.2263 6.29534 26.1947 6.31478C26.1225 6.35663 26.124 6.46277 26.1977 6.50164V6.50015Z" stroke="#AECBE3" stroke-width="0.5" stroke-miterlimit="10"/>
<path d="M27.9721 7.49258L28.2534 7.64356C28.2864 7.6615 28.3286 7.66001 28.3601 7.64057L28.3662 7.63758C28.4383 7.59423 28.4353 7.48809 28.3601 7.45072L28.0729 7.30422C28.0398 7.28778 28.0007 7.28777 27.9691 7.30721C27.8969 7.34907 27.8984 7.4552 27.9721 7.49407V7.49258Z" stroke="#AECBE3" stroke-width="0.5" stroke-miterlimit="10"/>
<path d="M29.6865 8.48525L29.9678 8.63624C30.0009 8.65418 30.043 8.65268 30.0746 8.63325L30.0806 8.63026C30.1528 8.5869 30.1498 8.48077 30.0746 8.44339L29.7873 8.29689C29.7542 8.28045 29.7151 8.28045 29.6835 8.29988C29.6113 8.34174 29.6128 8.44788 29.6865 8.48675V8.48525Z" stroke="#AECBE3" stroke-width="0.5" stroke-miterlimit="10"/>
<path d="M31.4161 9.48672L31.6973 9.6377C31.7304 9.65564 31.7725 9.65415 31.8041 9.63471L31.8101 9.63172C31.8823 9.58837 31.8793 9.48223 31.8041 9.44486L31.5169 9.29836C31.4838 9.28192 31.4447 9.28192 31.4131 9.30135C31.3409 9.34321 31.3424 9.44934 31.4161 9.48821V9.48672Z" stroke="#AECBE3" stroke-width="0.5" stroke-miterlimit="10"/>
<path d="M25.247 25.0399L25.5282 25.1909C25.5613 25.2089 25.6034 25.2074 25.635 25.1879L25.641 25.1849C25.7132 25.1416 25.7102 25.0355 25.635 24.9981L25.3477 24.8516C25.3146 24.8351 25.2755 24.8351 25.244 24.8546C25.1718 24.8964 25.1733 25.0026 25.247 25.0414V25.0399Z" stroke="#AECBE3" stroke-width="0.5" stroke-miterlimit="10"/>
<path d="M27.0161 26.0265L27.2973 26.1775C27.3304 26.1954 27.3725 26.1939 27.4041 26.1745L27.4101 26.1715C27.4823 26.1282 27.4793 26.022 27.4041 25.9847L27.1168 25.8382C27.0837 25.8217 27.0446 25.8217 27.0131 25.8411C26.9409 25.883 26.9424 25.9891 27.0161 26.028V26.0265Z" stroke="#AECBE3" stroke-width="0.5" stroke-miterlimit="10"/>
<path d="M28.729 26.9728L29.0102 27.1238C29.0433 27.1417 29.0854 27.1402 29.117 27.1208L29.123 27.1178C29.1952 27.0745 29.1922 26.9683 29.117 26.9309L28.8297 26.7844C28.7966 26.768 28.7575 26.768 28.7259 26.7874C28.6538 26.8293 28.6553 26.9354 28.729 26.9743V26.9728Z" stroke="#AECBE3" stroke-width="0.5" stroke-miterlimit="10"/>
<path d="M30.5033 27.9655L30.7845 28.1165C30.8176 28.1344 30.8597 28.1329 30.8913 28.1135L30.8973 28.1105C30.9695 28.0671 30.9665 27.961 30.8913 27.9236L30.6041 27.7771C30.571 27.7607 30.5319 27.7607 30.5003 27.7801C30.4281 27.822 30.4296 27.9281 30.5033 27.967V27.9655Z" stroke="#AECBE3" stroke-width="0.5" stroke-miterlimit="10"/>
<path d="M32.2185 28.9582L32.4997 29.1091C32.5328 29.1271 32.5749 29.1256 32.6065 29.1061L32.6125 29.1032C32.6847 29.0598 32.6817 28.9537 32.6065 28.9163L32.3192 28.7698C32.2861 28.7534 32.247 28.7534 32.2154 28.7728C32.1433 28.8146 32.1448 28.9208 32.2185 28.9596V28.9582Z" stroke="#AECBE3" stroke-width="0.5" stroke-miterlimit="10"/>
<path d="M33.9476 29.9596L34.2289 30.1106C34.262 30.1285 34.3041 30.127 34.3357 30.1076L34.3417 30.1046C34.4139 30.0613 34.4109 29.9551 34.3357 29.9178L34.0484 29.7713C34.0153 29.7548 33.9762 29.7548 33.9446 29.7743C33.8724 29.8161 33.8739 29.9222 33.9476 29.9611V29.9596Z" stroke="#AECBE3" stroke-width="0.5" stroke-miterlimit="10"/>
<path d="M24.3795 25.5048L24.6608 25.6558C24.6939 25.6737 24.736 25.6722 24.7675 25.6528L24.7736 25.6498C24.8458 25.6064 24.8427 25.5003 24.7675 25.4629L24.4803 25.3164C24.4472 25.3 24.4081 25.3 24.3765 25.3194C24.3043 25.3613 24.3058 25.4674 24.3795 25.5063V25.5048Z" stroke="#AECBE3" stroke-width="0.5" stroke-miterlimit="10"/>
<path d="M26.1483 26.4928L26.4295 26.6438C26.4626 26.6617 26.5047 26.6603 26.5363 26.6408L26.5423 26.6378C26.6145 26.5945 26.6115 26.4883 26.5363 26.451L26.249 26.3045C26.2159 26.288 26.1768 26.288 26.1453 26.3075C26.0731 26.3493 26.0746 26.4554 26.1483 26.4943V26.4928Z" stroke="#AECBE3" stroke-width="0.5" stroke-miterlimit="10"/>
<path d="M27.8607 27.4379L28.142 27.5889C28.1751 27.6068 28.2172 27.6053 28.2487 27.5859L28.2548 27.5829C28.327 27.5395 28.3239 27.4334 28.2487 27.396L27.9615 27.2495C27.9284 27.2331 27.8893 27.2331 27.8577 27.2525C27.7855 27.2944 27.787 27.4005 27.8607 27.4394V27.4379Z" stroke="#AECBE3" stroke-width="0.5" stroke-miterlimit="10"/>
<path d="M29.6359 28.4303L29.9171 28.5813C29.9502 28.5992 29.9923 28.5978 30.0239 28.5783L30.0299 28.5753C30.1021 28.532 30.0991 28.4258 30.0239 28.3885L29.7366 28.242C29.7036 28.2255 29.6644 28.2255 29.6329 28.245C29.5607 28.2868 29.5622 28.3929 29.6359 28.4318V28.4303Z" stroke="#AECBE3" stroke-width="0.5" stroke-miterlimit="10"/>
<path d="M31.3488 29.4245L31.63 29.5754C31.6631 29.5934 31.7052 29.5919 31.7368 29.5725L31.7428 29.5695C31.815 29.5261 31.812 29.42 31.7368 29.3826L31.4495 29.2361C31.4164 29.2197 31.3773 29.2197 31.3458 29.2391C31.2736 29.281 31.2751 29.3871 31.3488 29.426V29.4245Z" stroke="#AECBE3" stroke-width="0.5" stroke-miterlimit="10"/>
<path d="M33.0783 30.4245L33.3596 30.5754C33.3926 30.5934 33.4348 30.5919 33.4663 30.5725L33.4724 30.5695C33.5446 30.5261 33.5415 30.42 33.4663 30.3826L33.1791 30.2361C33.146 30.2197 33.1069 30.2197 33.0753 30.2391C33.0031 30.281 33.0046 30.3871 33.0783 30.426V30.4245Z" stroke="#AECBE3" stroke-width="0.5" stroke-miterlimit="10"/>
<path d="M6.15351 14.0912L6.43475 14.2422C6.46784 14.2601 6.50995 14.2586 6.54154 14.2392L6.54755 14.2362C6.61974 14.1929 6.61673 14.0867 6.54154 14.0494L6.25428 13.9029C6.22119 13.8864 6.18209 13.8864 6.15051 13.9058C6.07832 13.9477 6.07982 14.0538 6.15351 14.0927V14.0912Z" stroke="#AECBE3" stroke-width="0.5" stroke-miterlimit="10"/>
<path d="M7.92262 15.0778L8.20386 15.2288C8.23694 15.2467 8.27905 15.2452 8.31064 15.2258L8.31665 15.2228C8.38884 15.1794 8.38583 15.0733 8.31064 15.0359L8.02338 14.8894C7.9903 14.873 7.95119 14.873 7.91961 14.8924C7.84742 14.9343 7.84892 15.0404 7.92262 15.0793V15.0778Z" stroke="#AECBE3" stroke-width="0.5" stroke-miterlimit="10"/>
<path d="M9.63545 16.0241L9.91669 16.1751C9.94977 16.193 9.99188 16.1915 10.0235 16.1721L10.0295 16.1691C10.1017 16.1257 10.0987 16.0196 10.0235 15.9822L9.73621 15.8357C9.70312 15.8193 9.66402 15.8193 9.63244 15.8387C9.56025 15.8806 9.56175 15.9867 9.63545 16.0256V16.0241Z" stroke="#AECBE3" stroke-width="0.5" stroke-miterlimit="10"/>
<path d="M11.4099 17.0167L11.6911 17.1677C11.7242 17.1857 11.7663 17.1842 11.7979 17.1647L11.8039 17.1618C11.8761 17.1184 11.8731 17.0123 11.7979 16.9749L11.5106 16.8284C11.4775 16.8119 11.4384 16.8119 11.4069 16.8314C11.3347 16.8732 11.3362 16.9794 11.4099 17.0182V17.0167Z" stroke="#AECBE3" stroke-width="0.5" stroke-miterlimit="10"/>
<path d="M13.125 18.0094L13.4063 18.1604C13.4393 18.1783 13.4814 18.1769 13.513 18.1574L13.519 18.1544C13.5912 18.1111 13.5882 18.0049 13.513 17.9676L13.2258 17.8211C13.1927 17.8046 13.1536 17.8046 13.122 17.8241C13.0498 17.8659 13.0513 17.9721 13.125 18.0109V18.0094Z" stroke="#AECBE3" stroke-width="0.5" stroke-miterlimit="10"/>
<path d="M14.8527 19.0109L15.134 19.1619C15.1671 19.1798 15.2092 19.1783 15.2408 19.1589L15.2468 19.1559C15.319 19.1125 15.3159 19.0064 15.2408 18.969L14.9535 18.8225C14.9204 18.8061 14.8813 18.8061 14.8497 18.8255C14.7775 18.8674 14.779 18.9735 14.8527 19.0124V19.0109Z" stroke="#AECBE3" stroke-width="0.5" stroke-miterlimit="10"/>
<path d="M5.28608 14.5561L5.56732 14.707C5.60041 14.725 5.64252 14.7235 5.6741 14.704L5.68012 14.7011C5.75231 14.6577 5.7493 14.5516 5.6741 14.5142L5.38685 14.3677C5.35376 14.3513 5.31466 14.3513 5.28307 14.3707C5.21088 14.4125 5.21239 14.5187 5.28608 14.5575V14.5561Z" stroke="#AECBE3" stroke-width="0.5" stroke-miterlimit="10"/>
<path d="M7.05482 15.5429L7.33606 15.6939C7.36915 15.7118 7.41126 15.7103 7.44284 15.6909L7.44886 15.6879C7.52105 15.6445 7.51804 15.5384 7.44284 15.501L7.15559 15.3545C7.1225 15.3381 7.08339 15.3381 7.05181 15.3575C6.97962 15.3994 6.98113 15.5055 7.05482 15.5444V15.5429Z" stroke="#AECBE3" stroke-width="0.5" stroke-miterlimit="10"/>
<path d="M8.76802 16.4892L9.04926 16.6401C9.08234 16.6581 9.12445 16.6566 9.15604 16.6372L9.16205 16.6342C9.23424 16.5908 9.23123 16.4847 9.15604 16.4473L8.86878 16.3008C8.83569 16.2844 8.79659 16.2844 8.76501 16.3038C8.69282 16.3456 8.69432 16.4518 8.76802 16.4907V16.4892Z" stroke="#AECBE3" stroke-width="0.5" stroke-miterlimit="10"/>
<path d="M10.5424 17.4816L10.8237 17.6326C10.8568 17.6505 10.8989 17.649 10.9305 17.6296L10.9365 17.6266C11.0087 17.5832 11.0056 17.4771 10.9305 17.4397L10.6432 17.2932C10.6101 17.2768 10.571 17.2768 10.5394 17.2962C10.4672 17.3381 10.4687 17.4442 10.5424 17.4831V17.4816Z" stroke="#AECBE3" stroke-width="0.5" stroke-miterlimit="10"/>
<path d="M12.2553 18.4743L12.5366 18.6253C12.5696 18.6432 12.6118 18.6417 12.6433 18.6223L12.6494 18.6193C12.7215 18.5759 12.7185 18.4698 12.6433 18.4324L12.3561 18.2859C12.323 18.2695 12.2839 18.2695 12.2523 18.2889C12.1801 18.3308 12.1816 18.4369 12.2553 18.4758V18.4743Z" stroke="#AECBE3" stroke-width="0.5" stroke-miterlimit="10"/>
<path d="M13.9849 19.4757L14.2661 19.6267C14.2992 19.6447 14.3413 19.6432 14.3729 19.6237L14.3789 19.6207C14.4511 19.5774 14.4481 19.4712 14.3729 19.4339L14.0856 19.2874C14.0526 19.2709 14.0134 19.2709 13.9819 19.2904C13.9097 19.3322 13.9112 19.4384 13.9849 19.4772V19.4757Z" stroke="#AECBE3" stroke-width="0.5" stroke-miterlimit="10"/>
<path d="M16.5051 19.9887L16.7864 20.1397C16.8195 20.1576 16.8616 20.1561 16.8932 20.1367L16.8992 20.1337C16.9714 20.0903 16.9684 19.9842 16.8932 19.9468L16.6059 19.8003C16.5728 19.7839 16.5337 19.7839 16.5021 19.8033C16.4299 19.8452 16.4314 19.9513 16.5051 19.9902V19.9887Z" stroke="#AECBE3" stroke-width="0.5" stroke-miterlimit="10"/>
<path d="M18.2188 20.935L18.5 21.0859C18.5331 21.1039 18.5752 21.1024 18.6068 21.083L18.6128 21.08C18.685 21.0366 18.682 20.9305 18.6068 20.8931L18.3195 20.7466C18.2864 20.7302 18.2473 20.7302 18.2158 20.7496C18.1436 20.7914 18.1451 20.8976 18.2188 20.9365V20.935Z" stroke="#AECBE3" stroke-width="0.5" stroke-miterlimit="10"/>
<path d="M19.9932 21.9276L20.2744 22.0786C20.3075 22.0966 20.3496 22.0951 20.3812 22.0756L20.3872 22.0726C20.4594 22.0293 20.4564 21.9232 20.3812 21.8858L20.0939 21.7393C20.0609 21.7228 20.0217 21.7228 19.9902 21.7423C19.918 21.7841 19.9195 21.8903 19.9932 21.9291V21.9276Z" stroke="#AECBE3" stroke-width="0.5" stroke-miterlimit="10"/>
<path d="M21.7061 22.9203L21.9873 23.0713C22.0204 23.0892 22.0625 23.0877 22.0941 23.0683L22.1001 23.0653C22.1723 23.022 22.1693 22.9158 22.0941 22.8785L21.8068 22.732C21.7737 22.7155 21.7346 22.7155 21.7031 22.7349C21.6309 22.7768 21.6324 22.8829 21.7061 22.9218V22.9203Z" stroke="#AECBE3" stroke-width="0.5" stroke-miterlimit="10"/>
<path d="M23.4356 23.9218L23.7169 24.0728C23.7499 24.0907 23.7921 24.0892 23.8236 24.0698L23.8297 24.0668C23.9018 24.0234 23.8988 23.9173 23.8236 23.8799L23.5364 23.7334C23.5033 23.717 23.4642 23.717 23.4326 23.7364C23.3604 23.7783 23.3619 23.8844 23.4356 23.9233V23.9218Z" stroke="#AECBE3" stroke-width="0.5" stroke-miterlimit="10"/>
<path d="M15.6377 20.455L15.9189 20.606C15.952 20.6239 15.9941 20.6224 16.0257 20.603L16.0317 20.6C16.1039 20.5566 16.1009 20.4505 16.0257 20.4131L15.7385 20.2666C15.7054 20.2502 15.6663 20.2502 15.6347 20.2696C15.5625 20.3115 15.564 20.4176 15.6377 20.4565V20.455Z" stroke="#AECBE3" stroke-width="0.5" stroke-miterlimit="10"/>
<path d="M17.3491 21.4013L17.6303 21.5523C17.6634 21.5702 17.7055 21.5687 17.7371 21.5493L17.7431 21.5463C17.8153 21.5029 17.8123 21.3968 17.7371 21.3594L17.4498 21.2129C17.4167 21.1965 17.3776 21.1965 17.3461 21.2159C17.2739 21.2578 17.2754 21.3639 17.3491 21.4028V21.4013Z" stroke="#AECBE3" stroke-width="0.5" stroke-miterlimit="10"/>
<path d="M19.1254 22.3925L19.4066 22.5435C19.4397 22.5614 19.4818 22.5599 19.5134 22.5405L19.5194 22.5375C19.5916 22.4941 19.5886 22.388 19.5134 22.3506L19.2261 22.2041C19.1931 22.1877 19.154 22.1877 19.1224 22.2071C19.0502 22.249 19.0517 22.3551 19.1254 22.394V22.3925Z" stroke="#AECBE3" stroke-width="0.5" stroke-miterlimit="10"/>
<path d="M20.8382 23.3866L21.1194 23.5376C21.1525 23.5555 21.1946 23.554 21.2262 23.5346L21.2322 23.5316C21.3044 23.4883 21.3014 23.3821 21.2262 23.3448L20.939 23.1983C20.9059 23.1818 20.8668 23.1818 20.8352 23.2013C20.763 23.2431 20.7645 23.3492 20.8382 23.3881V23.3866Z" stroke="#AECBE3" stroke-width="0.5" stroke-miterlimit="10"/>
<path d="M22.5682 24.3866L22.8494 24.5376C22.8825 24.5555 22.9246 24.554 22.9562 24.5346L22.9622 24.5316C23.0344 24.4883 23.0314 24.3821 22.9562 24.3448L22.669 24.1983C22.6359 24.1818 22.5968 24.1818 22.5652 24.2013C22.493 24.2431 22.4945 24.3492 22.5682 24.3881V24.3866Z" stroke="#AECBE3" stroke-width="0.5" stroke-miterlimit="10"/>
<path d="M36.4042 29.8387L36.6735 29.6653C36.7096 29.6428 36.7547 29.6428 36.7908 29.6653C36.8615 29.7071 36.863 29.8088 36.7938 29.8536L36.5276 30.03C36.493 30.0524 36.4494 30.0539 36.4133 30.0345H36.4103C36.3351 29.9926 36.3321 29.8865 36.4042 29.8417V29.8387Z" stroke="#AECBE3" stroke-width="0.5" stroke-miterlimit="10"/>
<path d="M38.1547 28.7845L38.4239 28.6111C38.46 28.5886 38.5051 28.5886 38.5412 28.6111C38.6119 28.6529 38.6134 28.7546 38.5443 28.7994L38.2781 28.9758C38.2435 28.9982 38.1998 28.9997 38.1638 28.9803H38.1607C38.0856 28.9384 38.0825 28.8323 38.1547 28.7875V28.7845Z" stroke="#AECBE3" stroke-width="0.5" stroke-miterlimit="10"/>
<path d="M39.8467 27.792L40.1159 27.6186C40.152 27.5962 40.1971 27.5962 40.2332 27.6186C40.3039 27.6605 40.3054 27.7621 40.2362 27.807L39.97 27.9834C39.9354 28.0058 39.8918 28.0073 39.8557 27.9879H39.8527C39.7775 27.946 39.7745 27.8399 39.8467 27.795V27.792Z" stroke="#AECBE3" stroke-width="0.5" stroke-miterlimit="10"/>
<path d="M41.6382 26.8084L41.9074 26.635C41.9435 26.6126 41.9886 26.6126 42.0247 26.635C42.0954 26.6768 42.0969 26.7785 42.0277 26.8233L41.7615 26.9997C41.7269 27.0222 41.6833 27.0237 41.6472 27.0042H41.6442C41.569 26.9624 41.566 26.8562 41.6382 26.8114V26.8084Z" stroke="#AECBE3" stroke-width="0.5" stroke-miterlimit="10"/>
<path d="M44.9511 24.9339L45.2203 24.7605C45.2564 24.738 45.3015 24.738 45.3376 24.7605C45.4083 24.8023 45.4098 24.904 45.3406 24.9488L45.0744 25.1252C45.0398 25.1476 44.9962 25.1491 44.9601 25.1297H44.9571C44.8819 25.0879 44.8789 24.9817 44.9511 24.9369V24.9339Z" stroke="#AECBE3" stroke-width="0.5" stroke-miterlimit="10"/>
<path d="M46.7543 23.8528L47.0235 23.6794C47.0596 23.657 47.1048 23.657 47.1409 23.6794C47.2115 23.7213 47.213 23.8229 47.1439 23.8678L46.8777 24.0442C46.8431 24.0666 46.7995 24.0681 46.7634 24.0487H46.7604C46.6852 24.0068 46.6822 23.9007 46.7543 23.8558V23.8528Z" stroke="#AECBE3" stroke-width="0.5" stroke-miterlimit="10"/>
<path d="M48.4797 22.8706L48.749 22.6972C48.7851 22.6748 48.8302 22.6748 48.8663 22.6972C48.937 22.7391 48.9385 22.8407 48.8693 22.8856L48.6031 23.062C48.5685 23.0844 48.5249 23.0859 48.4888 23.0665H48.4858C48.4106 23.0246 48.4076 22.9185 48.4797 22.8736V22.8706Z" stroke="#AECBE3" stroke-width="0.5" stroke-miterlimit="10"/>
<path d="M50.2572 21.8572L50.5264 21.6838C50.5625 21.6614 50.6076 21.6614 50.6437 21.6838C50.7144 21.7257 50.7159 21.8273 50.6467 21.8722L50.3805 22.0486C50.3459 22.071 50.3023 22.0725 50.2662 22.0531H50.2632C50.188 22.0112 50.185 21.9051 50.2572 21.8602V21.8572Z" stroke="#AECBE3" stroke-width="0.5" stroke-miterlimit="10"/>
<path d="M37.2778 30.3811L37.547 30.2077C37.5831 30.1853 37.6282 30.1853 37.6643 30.2077C37.735 30.2496 37.7365 30.3512 37.6673 30.3961L37.4011 30.5725C37.3665 30.5949 37.3229 30.5964 37.2868 30.577H37.2838C37.2086 30.5351 37.2056 30.429 37.2778 30.3841V30.3811Z" stroke="#AECBE3" stroke-width="0.5" stroke-miterlimit="10"/>
<path d="M39.0283 29.3287L39.2975 29.1552C39.3336 29.1328 39.3787 29.1328 39.4148 29.1552C39.4855 29.1971 39.487 29.2988 39.4178 29.3436L39.1516 29.52C39.117 29.5424 39.0734 29.5439 39.0373 29.5245H39.0343C38.9591 29.4826 38.9561 29.3765 39.0283 29.3316V29.3287Z" stroke="#AECBE3" stroke-width="0.5" stroke-miterlimit="10"/>
<path d="M40.7202 28.3362L40.9894 28.1628C41.0255 28.1404 41.0706 28.1404 41.1067 28.1628C41.1774 28.2047 41.1789 28.3063 41.1097 28.3512L40.8435 28.5276C40.809 28.55 40.7653 28.5515 40.7292 28.5321H40.7262C40.651 28.4902 40.648 28.3841 40.7202 28.3392V28.3362Z" stroke="#AECBE3" stroke-width="0.5" stroke-miterlimit="10"/>
<path d="M42.5102 27.3509L42.7794 27.1775C42.8155 27.155 42.8606 27.155 42.8967 27.1775C42.9674 27.2193 42.9689 27.321 42.8997 27.3658L42.6335 27.5422C42.5989 27.5646 42.5553 27.5661 42.5192 27.5467H42.5162C42.441 27.5048 42.438 27.3987 42.5102 27.3539V27.3509Z" stroke="#AECBE3" stroke-width="0.5" stroke-miterlimit="10"/>
<path d="M45.8246 25.4764L46.0938 25.303C46.1299 25.2805 46.175 25.2805 46.2111 25.303C46.2818 25.3448 46.2833 25.4465 46.2141 25.4913L45.9479 25.6677C45.9133 25.6901 45.8697 25.6916 45.8336 25.6722H45.8306C45.7554 25.6303 45.7524 25.5242 45.8246 25.4793V25.4764Z" stroke="#AECBE3" stroke-width="0.5" stroke-miterlimit="10"/>
<path d="M47.6279 24.397L47.8971 24.2236C47.9332 24.2012 47.9783 24.2012 48.0144 24.2236C48.0851 24.2655 48.0866 24.3671 48.0174 24.412L47.7512 24.5884C47.7166 24.6108 47.673 24.6123 47.6369 24.5928H47.6339C47.5587 24.551 47.5557 24.4449 47.6279 24.4V24.397Z" stroke="#AECBE3" stroke-width="0.5" stroke-miterlimit="10"/>
<path d="M49.3533 23.4148L49.6225 23.2414C49.6586 23.219 49.7037 23.219 49.7398 23.2414C49.8105 23.2833 49.812 23.3849 49.7428 23.4298L49.4766 23.6062C49.442 23.6286 49.3984 23.6301 49.3623 23.6107H49.3593C49.2841 23.5688 49.2811 23.4627 49.3533 23.4178V23.4148Z" stroke="#AECBE3" stroke-width="0.5" stroke-miterlimit="10"/>
<path d="M51.1307 22.4014L51.3999 22.228C51.436 22.2056 51.4812 22.2056 51.5172 22.228C51.5879 22.2699 51.5894 22.3715 51.5203 22.4164L51.2541 22.5928C51.2195 22.6152 51.1759 22.6167 51.1398 22.5972H51.1368C51.0616 22.5554 51.0586 22.4492 51.1307 22.4044V22.4014Z" stroke="#AECBE3" stroke-width="0.5" stroke-miterlimit="10"/>
<path d="M5.51044 11.9954L5.77965 11.822C5.81575 11.7996 5.86087 11.7996 5.89696 11.822C5.96765 11.8639 5.96915 11.9655 5.89997 12.0103L5.63377 12.1867C5.59918 12.2092 5.55556 12.2107 5.51947 12.1912H5.51646C5.44126 12.1494 5.43825 12.0432 5.51044 11.9984V11.9954Z" stroke="#AECBE3" stroke-width="0.5" stroke-miterlimit="10"/>
<path d="M7.25941 10.9412L7.52861 10.7678C7.56471 10.7454 7.60983 10.7454 7.64592 10.7678C7.71661 10.8097 7.71811 10.9113 7.64893 10.9562L7.38273 11.1326C7.34814 11.155 7.30453 11.1565 7.26843 11.137H7.26542C7.19022 11.0952 7.18722 10.989 7.25941 10.9442V10.9412Z" stroke="#AECBE3" stroke-width="0.5" stroke-miterlimit="10"/>
<path d="M8.95289 9.94877L9.2221 9.77536C9.25819 9.75294 9.30331 9.75294 9.33941 9.77536C9.41009 9.81722 9.4116 9.91887 9.34241 9.96372L9.07621 10.1401C9.04162 10.1625 8.99801 10.164 8.96191 10.1446H8.9589C8.88371 10.1027 8.8807 9.99661 8.95289 9.95176V9.94877Z" stroke="#AECBE3" stroke-width="0.5" stroke-miterlimit="10"/>
<path d="M10.7429 8.96342L11.0121 8.79001C11.0482 8.76759 11.0933 8.76759 11.1294 8.79001C11.2001 8.83187 11.2016 8.93352 11.1324 8.97837L10.8662 9.15477C10.8316 9.17719 10.788 9.17869 10.7519 9.15925H10.7489C10.6737 9.1174 10.6707 9.01126 10.7429 8.96641V8.96342Z" stroke="#AECBE3" stroke-width="0.5" stroke-miterlimit="10"/>
<path d="M14.0561 7.08891L14.3253 6.9155C14.3614 6.89308 14.4065 6.89308 14.4426 6.9155C14.5133 6.95736 14.5148 7.05901 14.4456 7.10386L14.1794 7.28025C14.1448 7.30268 14.1012 7.30417 14.0651 7.28474H14.0621C13.9869 7.24288 13.9839 7.13674 14.0561 7.0919V7.08891Z" stroke="#AECBE3" stroke-width="0.5" stroke-miterlimit="10"/>
<path d="M15.859 6.00956L16.1282 5.83615C16.1643 5.81373 16.2094 5.81373 16.2455 5.83615C16.3162 5.87801 16.3177 5.97966 16.2485 6.02451L15.9823 6.20091C15.9477 6.22333 15.9041 6.22483 15.868 6.20539H15.865C15.7898 6.16354 15.7868 6.0574 15.859 6.01255V6.00956Z" stroke="#AECBE3" stroke-width="0.5" stroke-miterlimit="10"/>
<path d="M17.5844 5.02738L17.8536 4.85398C17.8897 4.83155 17.9348 4.83155 17.9709 4.85398C18.0416 4.89583 18.0431 4.99749 17.9739 5.04233L17.7077 5.21873C17.6732 5.24116 17.6295 5.24265 17.5934 5.22322H17.5904C17.5152 5.18136 17.5122 5.07522 17.5844 5.03037V5.02738Z" stroke="#AECBE3" stroke-width="0.5" stroke-miterlimit="10"/>
<path d="M19.3634 4.01396L19.6326 3.84055C19.6687 3.81812 19.7138 3.81812 19.7499 3.84055C19.8206 3.88241 19.8221 3.98406 19.7529 4.02891L19.4867 4.2053C19.4521 4.22773 19.4085 4.22922 19.3724 4.20979H19.3694C19.2942 4.16793 19.2912 4.06179 19.3634 4.01695V4.01396Z" stroke="#AECBE3" stroke-width="0.5" stroke-miterlimit="10"/>
<path d="M6.38435 12.5381L6.65355 12.3647C6.68965 12.3423 6.73477 12.3423 6.77086 12.3647C6.84155 12.4066 6.84305 12.5082 6.77387 12.5531L6.50767 12.7295C6.47308 12.7519 6.42946 12.7534 6.39337 12.734H6.39036C6.31516 12.6921 6.31216 12.586 6.38435 12.5411V12.5381Z" stroke="#AECBE3" stroke-width="0.5" stroke-miterlimit="10"/>
<path d="M8.13331 11.4839L8.40252 11.3105C8.43861 11.2881 8.48373 11.2881 8.51983 11.3105C8.59051 11.3524 8.59202 11.454 8.52283 11.4989L8.25663 11.6753C8.22204 11.6977 8.17843 11.6992 8.14233 11.6798H8.13932C8.06413 11.6379 8.06112 11.5318 8.13331 11.4869V11.4839Z" stroke="#AECBE3" stroke-width="0.5" stroke-miterlimit="10"/>
<path d="M9.82679 10.4915L10.096 10.3181C10.1321 10.2957 10.1772 10.2957 10.2133 10.3181C10.284 10.3599 10.2855 10.4616 10.2163 10.5064L9.95011 10.6828C9.91552 10.7053 9.87191 10.7068 9.83581 10.6873H9.83281C9.75761 10.6455 9.7546 10.5393 9.82679 10.4945V10.4915Z" stroke="#AECBE3" stroke-width="0.5" stroke-miterlimit="10"/>
<path d="M11.6168 9.50614L11.886 9.33274C11.9221 9.31031 11.9672 9.31031 12.0033 9.33274C12.074 9.37459 12.0755 9.47625 12.0063 9.52109L11.7401 9.69749C11.7055 9.71992 11.6619 9.72141 11.6258 9.70198H11.6228C11.5476 9.66012 11.5446 9.55398 11.6168 9.50913V9.50614Z" stroke="#AECBE3" stroke-width="0.5" stroke-miterlimit="10"/>
<path d="M14.9296 7.63334L15.1988 7.45993C15.2349 7.43751 15.2801 7.43751 15.3161 7.45993C15.3868 7.50179 15.3883 7.60344 15.3192 7.64829L15.053 7.82469C15.0184 7.84711 14.9748 7.84861 14.9387 7.82917H14.9356C14.8605 7.78732 14.8574 7.68118 14.9296 7.63633V7.63334Z" stroke="#AECBE3" stroke-width="0.5" stroke-miterlimit="10"/>
<path d="M16.7329 6.55229L17.0021 6.37888C17.0382 6.35645 17.0833 6.35645 17.1194 6.37888C17.1901 6.42074 17.1916 6.52239 17.1224 6.56724L16.8562 6.74364C16.8217 6.76606 16.778 6.76755 16.7419 6.74812H16.7389C16.6637 6.70626 16.6607 6.60012 16.7329 6.55528V6.55229Z" stroke="#AECBE3" stroke-width="0.5" stroke-miterlimit="10"/>
<path d="M18.4583 5.57011L18.7275 5.3967C18.7636 5.37428 18.8087 5.37428 18.8448 5.3967C18.9155 5.43856 18.917 5.54021 18.8478 5.58506L18.5816 5.76146C18.5471 5.78388 18.5034 5.78538 18.4673 5.76594H18.4643C18.3891 5.72408 18.3861 5.61795 18.4583 5.5731V5.57011Z" stroke="#AECBE3" stroke-width="0.5" stroke-miterlimit="10"/>
<path d="M20.2373 4.55668L20.5065 4.38327C20.5426 4.36085 20.5877 4.36085 20.6238 4.38327C20.6945 4.42513 20.696 4.52678 20.6268 4.57163L20.3606 4.74803C20.326 4.77045 20.2824 4.77195 20.2463 4.75251H20.2433C20.1681 4.71066 20.1651 4.60452 20.2373 4.55967V4.55668Z" stroke="#AECBE3" stroke-width="0.5" stroke-miterlimit="10"/>
<path d="M55.6347 21.1038V21.908L35.2711 33.5802L1.31622 14.2048V13.4543L35.1944 32.8298L55.6347 21.1038Z" stroke="#AECBE3" stroke-width="0.5" stroke-miterlimit="10"/>
<path d="M55.6347 21.337L35.2019 33.072L1.31622 13.6936" stroke="#AECBE3" stroke-width="0.5" stroke-miterlimit="10"/>
<path d="M55.6347 21.5973L35.2019 33.3308L1.31622 13.9524" stroke="#AECBE3" stroke-width="0.5" stroke-miterlimit="10"/>
<path d="M37.7194 32.1765C47.2605 35.6896 61.3706 29.5874 54.6464 22.4746" stroke="#AECBE3" stroke-width="0.5" stroke-miterlimit="10"/>
<path d="M55.1079 22.21C61.4395 28.4542 50.2065 36.7315 37.0859 32.5397" stroke="#AECBE3" stroke-width="0.5" stroke-miterlimit="10"/>
<path d="M20.7859 2.34421C9.2129 -2.56505 -5.95301 5.37887 2.55939 12.7443" stroke="#AECBE3" stroke-width="0.5" stroke-miterlimit="10"/>
<path d="M2.90907 12.5454C-4.46935 6.48059 7.20888 -1.84154 20.2377 2.65663" stroke="#AECBE3" stroke-width="0.5" stroke-miterlimit="10"/>
</g>
<defs>
<clipPath id="clip0_7_731">
<rect width="57" height="33" fill="white" transform="translate(0 0.752197)"/>
</clipPath>
</defs>
</svg>
