<svg width="168" height="22" viewBox="0 0 168 22" fill="none" xmlns="http://www.w3.org/2000/svg">
<g clip-path="url(#clip0_207_698)">
<path d="M0 2.78381V18.1926H0.152906C0.152906 18.1926 4.46601 13.6356 11.252 6.97331C15.1486 3.14606 13.8462 0.500054 9.81784 0.500054H2.32527C2.02199 0.497979 1.72126 0.555404 1.44027 0.669051C1.15927 0.782699 0.903513 0.950341 0.68759 1.16241C0.471666 1.37448 0.299816 1.62682 0.181838 1.90502C0.0638599 2.18322 0.00207018 2.48183 0 2.78381V2.78381Z" fill="white"/>
<path d="M21.0909 5.14111V19.2216C21.0854 19.8306 20.8374 20.4125 20.4015 20.8396C19.9656 21.2668 19.3773 21.5043 18.7656 21.5001H2.32525C1.93894 21.5033 1.55816 21.4086 1.21872 21.2249C0.879285 21.0412 0.592347 20.7746 0.384888 20.4501L0.970162 20.0774L14.7426 11.3309C18.3227 8.94737 20.6269 7.39862 21.0013 5.15162L21.0909 5.14111Z" fill="white"/>
<path d="M41.6651 2.6001H31.6469V19.4001H41.6018C46.5002 19.4001 50.4389 16.0926 50.4389 10.7061C50.4284 6.2436 47.2964 2.6001 41.6651 2.6001ZM41.0693 16.5546H35.2693V5.44035H41.1273C44.6653 5.4771 46.5318 7.50359 46.5318 10.8163C46.5529 14.4598 44.6653 16.5546 41.0693 16.5546V16.5546Z" fill="white"/>
<path d="M65.8301 12.1027H56.2285V16.4445H67.5754V19.3845H53.7661C53.45 19.3845 53.147 19.2595 52.9235 19.0369C52.7 18.8144 52.5745 18.5126 52.5745 18.198V3.78671C52.5745 3.47155 52.6998 3.16921 52.9232 2.94586C53.1465 2.72252 53.4496 2.59636 53.7661 2.59497H67.5754V5.54021H56.2285V9.18371H65.8301V12.1027Z" fill="white"/>
<path d="M69.637 2.59497H73.291V16.4602H83.6942V19.4055H70.8339C70.5174 19.4055 70.2138 19.2806 69.9895 19.0583C69.7651 18.8359 69.6384 18.5341 69.637 18.219V2.59497Z" fill="white"/>
<path d="M86.6259 5.52972H80.0086V2.59497H97.0237V5.52972H90.2852V19.4055H86.6259V5.52972Z" fill="white"/>
<path d="M144.336 19.4055V3.78671C144.336 3.47064 144.462 3.16752 144.687 2.94402C144.911 2.72052 145.215 2.59497 145.533 2.59497H148.285C148.411 2.59538 148.535 2.62226 148.65 2.67383C148.764 2.7254 148.866 2.8005 148.95 2.89421L159.891 14.9692H159.938L159.801 2.60546H163.16V18.2295C163.16 18.3857 163.129 18.5404 163.068 18.6847C163.008 18.829 162.92 18.9601 162.809 19.0703C162.698 19.1805 162.566 19.2678 162.42 19.3271C162.275 19.3865 162.12 19.4166 161.963 19.416H159.358C159.272 19.4161 159.187 19.3978 159.109 19.3625C159.031 19.3272 158.961 19.2756 158.905 19.2112L147.61 6.22796H147.563L147.7 19.416L144.336 19.4055Z" fill="white"/>
<path d="M110.01 12.9059C112.578 12.2549 114.049 10.4541 114.049 7.79236C114.049 4.64236 111.624 2.6001 107.627 2.6001H99.1011V19.4001H102.792V13.1998H106.23L111.239 19.4106H115.294L110.01 12.9059ZM102.771 10.3334V5.4456H107.274C109.441 5.4456 110.395 6.3486 110.395 7.8501C110.395 9.71385 109.167 10.3334 107.274 10.3334H102.771Z" fill="white"/>
<path d="M134.734 3.08299C134.661 2.93339 134.547 2.80729 134.405 2.7191C134.264 2.63091 134.1 2.58417 133.933 2.58423H130.711C130.544 2.58538 130.381 2.63261 130.239 2.72067C130.098 2.80872 129.984 2.93415 129.91 3.08299L121.679 19.3947H125.143L127.11 15.4887H137.534L139.501 19.3947H142.96L134.734 3.08299ZM128.707 12.323L132.325 5.15149L135.936 12.323H128.707Z" fill="white"/>
<path d="M166.603 4.10153H166.429V4.62653H166.149V3.21952H166.74C166.802 3.21446 166.864 3.22223 166.923 3.24231C166.982 3.2624 167.037 3.29437 167.083 3.33625C167.129 3.37813 167.166 3.429 167.191 3.4857C167.216 3.5424 167.23 3.6037 167.23 3.66577C167.232 3.7614 167.201 3.85485 167.144 3.9317C167.087 4.00855 167.006 4.06453 166.914 4.09102L167.267 4.61602H166.94L166.603 4.10153ZM166.745 3.84952C166.774 3.8542 166.803 3.85262 166.831 3.84488C166.859 3.83714 166.885 3.82342 166.907 3.80469C166.929 3.78597 166.947 3.76266 166.959 3.73641C166.972 3.71015 166.978 3.68157 166.978 3.65265C166.978 3.62372 166.972 3.59514 166.959 3.56889C166.947 3.54263 166.929 3.51933 166.907 3.5006C166.885 3.48187 166.859 3.46816 166.831 3.46042C166.803 3.45268 166.774 3.4511 166.745 3.45577H166.429V3.84952H166.745Z" fill="white"/>
<path d="M166.65 5.2776C166.382 5.27864 166.119 5.20039 165.896 5.05276C165.672 4.90514 165.498 4.69478 165.394 4.44833C165.291 4.20188 165.263 3.93043 165.315 3.66836C165.367 3.40628 165.496 3.16538 165.685 2.97616C165.874 2.78693 166.116 2.6579 166.379 2.60541C166.642 2.55292 166.914 2.57934 167.162 2.68131C167.41 2.78327 167.622 2.95621 167.771 3.17821C167.92 3.4002 168 3.66126 168 3.92834C168 4.28528 167.858 4.62768 167.605 4.88056C167.352 5.13345 167.009 5.27621 166.65 5.2776ZM166.65 2.88885C166.442 2.88885 166.238 2.95042 166.064 3.0658C165.891 3.18117 165.756 3.34517 165.676 3.53703C165.596 3.72889 165.575 3.94001 165.616 4.14369C165.657 4.34737 165.757 4.53447 165.904 4.68132C166.052 4.82816 166.24 4.92815 166.444 4.96867C166.649 5.00918 166.861 4.98839 167.054 4.90892C167.246 4.82945 167.411 4.69486 167.527 4.52219C167.643 4.34952 167.705 4.14652 167.705 3.93885C167.703 3.66129 167.592 3.39555 167.394 3.19977C167.196 3.00399 166.929 2.89409 166.65 2.89409V2.88885Z" fill="white"/>
<path d="M116.675 19.3948H120.234L120.282 2.6001H116.675V19.3948Z" fill="white"/>
</g>
<defs>
<clipPath id="clip0_207_698">
<rect width="168" height="21" fill="white" transform="translate(0 0.5)"/>
</clipPath>
</defs>
</svg>
